<svg xmlns="http://www.w3.org/2000/svg" viewBox="0 0 64 64">
  <defs>
    <linearGradient id="g" x1="0" y1="0" x2="1" y2="1">
      <stop offset="0%" stop-color="#EA580C"/>
      <stop offset="100%" stop-color="#F59E0B"/>
    </linearGradient>
  </defs>
  <rect width="64" height="64" rx="12" fill="url(#g)"/>
  <path d="M20 42c2.5 2.2 6.2 3.5 10.3 3.5 7.2 0 11.7-3.2 11.7-8.3 0-4.2-2.6-6.4-9-7.6l-3.4-.6c-3.8-.7-5.3-1.7-5.3-3.6 0-2.2 2.3-3.7 5.8-3.7 3 0 5.5.8 7.5 2.3l2.8-4.6c-2.6-2-6.1-3.1-10.1-3.1-6.8 0-11.4 3.4-11.4 8.7 0 4.7 3 7.1 9.6 8.3l3.5.6c3.6.7 4.7 1.6 4.7 3.4 0 2.3-2.4 3.8-6.2 3.8-3.4 0-6.7-1-9-2.9L20 42z" fill="#fff"/>
</svg>
