<svg version="1.1" id="Layer_1" xmlns="http://www.w3.org/2000/svg" xmlns:xlink="http://www.w3.org/1999/xlink" x="0px" y="0px"
	 width="100%" viewBox="0 0 490 398" enable-background="new 0 0 490 398" xml:space="preserve">
<path fill="#FFFFFF" opacity="1.000000" stroke="none" 
	d="
M300.000000,399.000000 
	C200.028000,399.000000 100.555984,399.000000 1.041989,399.000000 
	C1.041989,266.398651 1.041989,133.797302 1.041989,1.097975 
	C164.222015,1.097975 327.444092,1.097975 490.833099,1.097975 
	C490.833099,133.666504 490.833099,266.333221 490.833099,399.000000 
	C427.463959,399.000000 363.981964,399.000000 300.000000,399.000000 
M239.261871,37.198715 
	C230.454300,38.736645 227.287918,43.353024 228.015045,52.884499 
	C210.198105,66.528275 191.170624,78.196831 170.873917,87.771362 
	C162.951965,91.508369 154.954391,95.085045 146.066116,98.883224 
	C144.069489,98.910263 142.072891,98.958733 140.076248,98.960724 
	C129.923340,98.970863 119.769859,98.907417 109.617775,99.000664 
	C105.379639,99.039597 102.329407,101.909264 102.241730,105.551048 
	C102.153900,109.199501 105.118530,111.885895 109.520432,112.121292 
	C111.345116,112.218864 113.172134,112.272751 115.003235,113.240364 
	C115.011620,127.475365 115.020012,141.710358 114.524216,156.439102 
	C107.605705,158.824539 100.687195,161.209991 93.222580,163.362732 
	C92.664597,163.538956 92.106613,163.715179 91.170113,163.685471 
	C90.873062,163.646820 90.596230,163.704742 89.351509,163.707077 
	C83.771690,163.699356 78.073448,162.989777 72.649345,163.904968 
	C68.273407,164.643311 64.228340,167.342636 59.430099,169.441544 
	C54.457958,174.421631 52.540264,180.401306 54.087654,187.252609 
	C56.321098,197.141525 63.559101,201.522491 73.027176,203.199066 
	C73.027176,211.069489 72.894272,218.557434 73.068436,226.038239 
	C73.212654,232.232834 76.658119,235.172180 83.722183,235.041992 
	C88.692192,233.863358 90.636002,230.468079 90.679413,225.628876 
	C90.747345,218.057693 90.852837,210.486847 91.824303,202.912979 
	C100.336853,202.853378 107.935524,205.708527 115.018410,211.101074 
	C115.012695,230.262512 115.006989,249.423950 114.120094,268.777161 
	C112.455009,268.805939 110.789993,268.840393 109.124817,268.862366 
	C104.882988,268.918304 102.365555,271.282288 102.364746,275.284393 
	C102.363937,279.236938 104.877808,281.668549 109.026184,281.952179 
	C110.187233,282.031555 111.357254,281.987091 112.523155,281.987061 
	C155.164612,281.986542 197.806076,281.984558 240.700027,282.807343 
	C242.319778,295.951630 248.093979,306.959778 258.476044,315.135925 
	C275.541626,328.575439 294.047424,330.258636 313.475220,320.589844 
	C318.313629,318.181885 322.613831,317.668854 326.232788,322.769592 
	C326.658936,325.072632 326.286499,328.137634 327.639862,329.555939 
	C336.946747,339.309540 346.521698,348.814697 356.209717,358.193848 
	C360.358124,362.209961 365.370209,361.981445 370.689148,357.915619 
	C375.123962,352.329407 375.169464,347.266083 370.434753,342.440002 
	C361.379883,333.210510 352.155243,324.147736 343.046967,314.970245 
	C340.627960,312.532898 338.061249,311.856506 334.396301,313.010132 
	C330.844452,309.452515 331.036438,305.713898 332.893555,301.197662 
	C335.454163,294.970673 337.184326,288.402161 340.167450,281.988525 
	C341.500610,281.989624 342.833801,281.992126 344.166962,281.991638 
	C352.665955,281.988617 361.165131,282.019318 369.663818,281.967072 
	C373.900085,281.941010 376.754791,280.070618 377.016205,275.543671 
	C377.252289,271.455170 374.418274,269.029510 369.499390,268.847595 
	C367.670166,268.779968 365.840576,268.721771 364.010773,267.764679 
	C364.016357,215.939255 364.021942,164.113831 364.915497,112.180077 
	C366.742981,112.157951 368.572052,112.176483 370.397644,112.105499 
	C374.590454,111.942451 376.859009,109.655144 377.006012,105.545090 
	C377.144592,101.670395 374.305176,99.057419 369.821136,99.001137 
	C357.529846,98.846901 345.236786,98.835243 332.449982,98.306290 
	C312.126984,90.389320 292.685608,80.703636 274.349365,68.890625 
	C266.295197,63.701778 258.524994,58.072136 250.744644,51.834316 
	C251.534805,42.518646 248.386765,38.277519 239.261871,37.198715 
z"/>
<path fill="#E3F0FE" opacity="1.000000" stroke="none" 
	d="
M115.001282,268.585388 
	C115.006989,249.423950 115.012695,230.262512 115.341507,210.727753 
	C120.746567,213.689621 125.753052,217.147797 130.931137,220.326431 
	C136.419159,223.695374 140.631836,221.544769 141.872101,214.551727 
	C142.018326,207.811905 142.083847,201.534958 142.551056,195.244659 
	C144.284195,195.067535 145.615662,194.903763 147.291046,194.731567 
	C153.147995,192.480835 156.136948,188.485733 155.938004,182.433090 
	C155.762955,177.107437 152.960266,173.800262 146.841980,171.532410 
	C145.370407,171.260376 144.187271,171.198593 142.801483,171.032715 
	C142.598831,170.928604 142.149826,170.850830 142.099365,170.394104 
	C142.031128,164.282852 142.374481,158.593765 141.837601,152.988983 
	C141.583267,150.333817 140.280640,146.717911 138.290756,145.592880 
	C136.355927,144.498978 132.578125,145.342529 130.239822,146.552887 
	C124.962700,149.284454 120.074715,152.767838 115.028412,155.945358 
	C115.020012,141.710358 115.011620,127.475365 115.456367,112.677536 
	C116.740601,112.086281 117.571693,112.032997 118.402794,112.032951 
	C196.109238,112.028580 273.815674,112.027512 351.522125,112.035057 
	C352.683319,112.035172 353.844543,112.145744 355.000610,112.658394 
	C354.999573,164.966080 355.003662,216.820145 354.543915,268.745483 
	C349.057434,268.825684 344.034790,268.834595 338.907654,268.477295 
	C336.876801,258.166138 332.040131,249.695145 326.094025,242.025208 
	C329.736145,241.999619 333.030823,242.548828 335.974030,241.769882 
	C337.853241,241.272537 339.212372,238.810013 340.804688,237.228592 
	C339.111664,235.796509 337.483978,233.232590 335.714142,233.130356 
	C328.459503,232.711334 321.161469,233.042572 313.526245,233.021027 
	C301.595123,227.624908 289.690002,225.426453 276.783844,229.144196 
	C272.947784,230.415512 269.489990,231.712555 265.561218,232.975830 
	C253.784668,232.935944 242.479095,232.926559 231.173523,232.924606 
	C218.704086,232.922455 206.234253,232.982849 193.765518,232.890442 
	C190.563690,232.866714 187.972946,234.262726 188.460281,237.217316 
	C188.761383,239.042984 191.694656,240.596420 193.688339,241.902603 
	C194.503769,242.436859 195.958344,241.996414 197.122147,241.997925 
	C216.075241,242.022293 235.028336,242.046417 253.855820,242.378296 
	C247.076721,250.261398 242.614975,258.910736 240.427521,268.891174 
	C200.304230,268.876801 160.639496,268.874390 120.974754,268.852142 
	C118.983543,268.851044 116.992439,268.678253 115.001282,268.585388 
M233.500000,218.891205 
	C242.481644,218.891220 251.463272,218.891541 260.444916,218.891190 
	C272.087769,218.890732 283.730988,218.942032 295.373352,218.865616 
	C300.708862,218.830582 303.829224,215.498260 301.511963,212.092621 
	C300.335510,210.363586 297.100006,209.216553 294.787262,209.203171 
	C263.019958,209.019424 231.251190,209.102600 199.482895,209.048508 
	C195.775894,209.042206 192.283508,209.809540 192.323746,214.008286 
	C192.363647,218.175079 195.873978,218.951828 199.567566,218.922333 
	C210.544434,218.834702 221.522446,218.890961 233.500000,218.891205 
M301.351135,164.303207 
	C299.399750,163.570389 297.451416,162.208755 295.496521,162.199249 
	C267.164734,162.061310 238.832062,162.092926 210.499634,162.120209 
	C207.109619,162.123474 203.936752,162.753693 204.019501,167.164200 
	C204.096512,171.268082 207.140854,171.885269 210.315247,171.889313 
	C238.814316,171.925568 267.313538,171.947510 295.812469,171.874786 
	C300.824799,171.861984 301.968506,170.316498 301.351135,164.303207 
M247.500168,195.037476 
	C263.659119,195.035965 279.818115,195.059402 295.976929,195.010712 
	C298.999298,195.001617 301.877106,194.268997 301.884888,190.476883 
	C301.892548,186.738358 299.272552,185.946457 296.070923,185.950745 
	C273.914917,185.980469 251.758789,185.979019 229.602737,185.953079 
	C226.320068,185.949234 223.908020,186.975632 224.013458,190.688431 
	C224.110916,194.120361 226.491928,195.048630 229.508453,195.038177 
	C235.172348,195.018539 240.836349,195.035706 247.500168,195.037476 
M269.500000,138.963440 
	C258.520966,138.963745 247.541824,138.993301 236.563004,138.947052 
	C233.124420,138.932571 229.883835,139.298447 230.008743,143.724197 
	C230.125168,147.849258 233.282867,148.056946 236.487274,148.051819 
	C256.116394,148.020386 275.745728,147.996765 295.374603,148.073669 
	C298.733887,148.086823 301.735535,147.520859 301.768066,143.616455 
	C301.800354,139.741776 298.774231,138.941681 295.452301,138.954681 
	C287.134979,138.987228 278.817444,138.964142 269.500000,138.963440 
M331.336121,209.078842 
	C328.169678,209.079544 325.002167,209.132095 321.837097,209.066589 
	C318.582672,208.999222 316.183777,210.010498 316.010406,213.670212 
	C315.819489,217.699966 318.528961,218.779739 321.849274,218.859253 
	C326.179810,218.962967 330.605408,219.407104 334.810791,218.674835 
	C337.032623,218.287933 340.220306,215.982773 340.597626,214.074234 
	C341.309357,210.474731 338.223297,209.056534 334.772858,209.081116 
	C333.939606,209.087067 333.106323,209.080124 331.336121,209.078842 
M340.890656,166.613159 
	C339.626129,165.187653 338.436890,162.622787 337.084045,162.533371 
	C331.148315,162.140945 325.110962,162.003922 319.219208,162.697647 
	C315.558105,163.128738 314.703827,168.180786 317.449188,170.540619 
	C319.926392,172.669937 336.774414,172.576614 339.152618,170.300156 
	C339.940643,169.545837 340.322418,168.367126 340.890656,166.613159 
M316.040192,144.320831 
	C317.741089,145.558212 319.349335,147.671234 321.160919,147.862946 
	C325.919464,148.366562 330.767700,147.969269 335.577972,148.055908 
	C338.866089,148.115128 341.104828,146.354034 340.573395,143.415878 
	C340.263275,141.701202 337.592560,139.405991 335.754547,139.171783 
	C331.019409,138.568420 326.156525,138.981400 321.344818,138.959991 
	C318.242096,138.946198 316.248962,140.188538 316.040192,144.320831 
M328.497589,185.958694 
	C325.667267,185.975800 322.702332,185.489700 320.056732,186.197388 
	C318.450928,186.626953 316.329376,188.873535 316.287598,190.355942 
	C316.245453,191.850204 318.381439,194.607117 319.749664,194.729797 
	C325.363342,195.233063 331.082092,195.281326 336.684296,194.719940 
	C338.193604,194.568680 340.547211,191.617981 340.462463,190.064224 
	C340.383789,188.622223 337.761566,186.783096 335.902618,186.122375 
	C333.979370,185.438797 331.626953,185.962830 328.497589,185.958694 
M174.537109,187.929657 
	C177.018677,187.883163 179.686218,188.377853 181.919998,187.610291 
	C183.557800,187.047470 185.791931,184.711105 185.657501,183.377090 
	C185.484741,181.662598 183.362305,178.993576 181.806808,178.786575 
	C177.256317,178.181015 172.527328,178.244583 167.962433,178.808289 
	C166.497162,178.989227 164.326660,181.523254 164.295715,183.018341 
	C164.263901,184.555573 166.153214,186.719940 167.750778,187.538437 
	C169.350647,188.358093 171.628876,187.853622 174.537109,187.929657 
M175.238434,204.203842 
	C171.663559,202.133514 168.114029,200.017670 164.505508,198.007797 
	C161.793182,196.497086 158.825470,196.700638 157.872421,199.682220 
	C157.319458,201.412155 158.425385,204.598816 159.883255,205.847839 
	C162.721893,208.279831 166.190826,210.164963 169.683746,211.565857 
	C171.464890,212.280212 174.983688,212.214279 175.711914,211.140808 
	C176.719147,209.656021 175.835526,206.888489 175.238434,204.203842 
M160.807434,169.004456 
	C165.382660,166.849396 170.018951,164.812759 174.510895,162.496216 
	C177.339493,161.037476 178.289047,158.087769 176.323471,155.859070 
	C175.146576,154.524612 171.772049,153.952362 169.954010,154.609940 
	C166.423920,155.886719 163.220123,158.156509 160.018326,160.227036 
	C156.042725,162.797974 156.116989,165.367142 160.807434,169.004456 
z"/>
<path fill="#C9715F" opacity="1.000000" stroke="none" 
	d="
M355.005737,112.204773 
	C353.844543,112.145744 352.683319,112.035172 351.522125,112.035057 
	C273.815674,112.027512 196.109238,112.028580 118.402794,112.032951 
	C117.571693,112.032997 116.740601,112.086281 115.453796,112.230606 
	C113.172134,112.272751 111.345116,112.218864 109.520432,112.121292 
	C105.118530,111.885895 102.153900,109.199501 102.241730,105.551048 
	C102.329407,101.909264 105.379639,99.039597 109.617775,99.000664 
	C119.769859,98.907417 129.923340,98.970863 140.076248,98.960724 
	C142.072891,98.958733 144.069489,98.910263 146.989532,98.901726 
	C155.617813,98.879837 163.322678,98.839447 171.492798,98.864883 
	C204.609161,98.943985 237.260284,98.977951 269.911377,98.960312 
	C282.900696,98.953293 295.889954,98.831993 309.348877,98.844490 
	C317.527161,98.873222 325.235809,98.820183 332.944427,98.767143 
	C345.236786,98.835243 357.529846,98.846901 369.821136,99.001137 
	C374.305176,99.057419 377.144592,101.670395 377.006012,105.545090 
	C376.859009,109.655144 374.590454,111.942451 370.397644,112.105499 
	C368.572052,112.176483 366.742981,112.157951 364.032166,112.119141 
	C360.434479,112.107063 357.720093,112.155922 355.005737,112.204773 
z"/>
<path fill="#70BFFC" opacity="1.000000" stroke="none" 
	d="
M266.032196,233.009613 
	C269.489990,231.712555 272.947784,230.415512 277.083862,229.405212 
	C281.572266,229.782318 285.381989,229.914780 289.192657,229.956131 
	C312.332092,230.207153 333.445282,251.175262 334.042267,274.254303 
	C334.295441,284.044067 331.436493,292.839508 326.899048,301.316254 
	C323.769104,307.163483 324.220947,309.477661 328.651917,314.192688 
	C329.552399,315.150848 330.318512,316.235291 331.010193,317.546722 
	C329.415924,319.257538 327.958069,320.683167 326.500214,322.108795 
	C322.613831,317.668854 318.313629,318.181885 313.475220,320.589844 
	C294.047424,330.258636 275.541626,328.575439 258.476044,315.135925 
	C248.093979,306.959778 242.319778,295.951630 240.665695,281.936157 
	C240.716263,277.009705 240.801163,272.954407 240.886063,268.899109 
	C242.614975,258.910736 247.076721,250.261398 254.160172,242.224609 
	C258.404144,238.845322 262.218170,235.927460 266.032196,233.009613 
M274.516693,244.173141 
	C274.353668,244.477097 274.190643,244.781036 273.992340,245.019516 
	C273.992340,245.019516 274.058746,245.053009 273.298370,244.962372 
	C272.500061,245.143051 271.649353,245.202698 270.911072,245.522110 
	C252.145370,253.640610 244.711411,278.394958 256.176086,295.492889 
	C259.589142,300.582977 263.004883,306.242035 270.930176,307.022736 
	C277.938934,308.656555 284.990417,311.805328 291.947540,311.609039 
	C306.466492,311.199463 317.048981,303.304932 322.414429,289.727203 
	C327.782410,276.143158 325.081146,263.539124 315.241486,252.790466 
	C306.708588,243.469330 295.591644,241.041473 282.539246,242.059189 
	C280.022888,242.681122 277.506500,243.303040 274.516693,244.173141 
z"/>
<path fill="#FCDB36" opacity="1.000000" stroke="none" 
	d="
M142.149384,195.258011 
	C142.083847,201.534958 142.018326,207.811905 141.485306,214.548706 
	C138.499313,213.996323 135.668930,213.424835 133.513474,211.899551 
	C120.574783,202.743698 107.211800,194.912003 90.420753,195.869400 
	C90.311081,195.884232 90.097832,195.943558 90.134369,195.479507 
	C90.227135,184.630035 90.283371,174.244629 90.339615,163.859207 
	C90.596230,163.704742 90.873062,163.646820 91.653427,163.807556 
	C92.680717,163.818253 93.224709,163.706848 93.768692,163.595444 
	C100.687195,161.209991 107.605705,158.824539 114.776314,156.192230 
	C120.074715,152.767838 124.962700,149.284454 130.239822,146.552887 
	C132.578125,145.342529 136.355927,144.498978 138.290756,145.592880 
	C140.280640,146.717911 141.583267,150.333817 141.837601,152.988983 
	C142.374481,158.593765 142.031128,164.282852 142.060684,170.673279 
	C142.095016,171.595718 142.117569,171.782242 142.082764,172.436218 
	C142.066727,180.355103 142.108047,187.806549 142.149384,195.258011 
z"/>
<path fill="#C97260" opacity="1.000000" stroke="none" 
	d="
M240.427521,268.891174 
	C240.801163,272.954407 240.716263,277.009705 240.539444,281.523865 
	C197.806076,281.984558 155.164612,281.986542 112.523155,281.987061 
	C111.357254,281.987091 110.187233,282.031555 109.026184,281.952179 
	C104.877808,281.668549 102.363937,279.236938 102.364746,275.284393 
	C102.365555,271.282288 104.882988,268.918304 109.124817,268.862366 
	C110.789993,268.840393 112.455009,268.805939 114.560684,268.681274 
	C116.992439,268.678253 118.983543,268.851044 120.974754,268.852142 
	C160.639496,268.874390 200.304230,268.876801 240.427521,268.891174 
z"/>
<path fill="#B7DBFF" opacity="1.000000" stroke="none" 
	d="
M355.000610,112.658401 
	C357.720093,112.155922 360.434479,112.107063 363.588196,112.173309 
	C364.021942,164.113831 364.016357,215.939255 363.572632,268.325989 
	C360.425568,268.816284 357.716644,268.745239 355.007751,268.674194 
	C355.003662,216.820145 354.999573,164.966080 355.000610,112.658401 
z"/>
<path fill="#FF5471" opacity="1.000000" stroke="none" 
	d="
M89.845566,163.783142 
	C90.283371,174.244629 90.227135,184.630035 89.658752,195.500275 
	C85.326828,195.990280 81.505226,196.073578 77.687645,195.984619 
	C69.347061,195.790298 61.640614,189.929825 60.107231,181.832962 
	C59.334846,177.754440 60.013805,173.401062 60.036480,169.171982 
	C64.228340,167.342636 68.273407,164.643311 72.649345,163.904968 
	C78.073448,162.989777 83.771690,163.699356 89.845566,163.783142 
z"/>
<path fill="#C8715F" opacity="1.000000" stroke="none" 
	d="
M326.366516,322.439209 
	C327.958069,320.683167 329.415924,319.257538 331.240356,317.476868 
	C331.892090,316.958191 332.198914,316.869110 332.962158,316.888489 
	C335.706177,317.905365 338.530060,318.345551 340.236603,319.963928 
	C348.157349,327.475647 355.623322,335.467010 363.546570,342.975922 
	C368.042389,347.236603 370.796783,351.895142 370.047150,358.225586 
	C365.370209,361.981445 360.358124,362.209961 356.209717,358.193848 
	C346.521698,348.814697 336.946747,339.309540 327.639862,329.555939 
	C326.286499,328.137634 326.658936,325.072632 326.366516,322.439209 
z"/>
<path fill="#BFC8F1" opacity="1.000000" stroke="none" 
	d="
M171.027527,98.799065 
	C163.322678,98.839447 155.617813,98.879837 147.452118,98.827492 
	C154.954391,95.085045 162.951965,91.508369 170.873917,87.771362 
	C191.170624,78.196831 210.198105,66.528275 228.542023,52.996330 
	C230.773834,55.054401 232.478668,57.000637 234.004547,59.246357 
	C226.906464,64.685989 220.328308,70.387024 212.994705,74.845367 
	C199.236404,83.209518 185.041092,90.854805 171.027527,98.799065 
z"/>
<path fill="#BFC8F1" opacity="1.000000" stroke="none" 
	d="
M332.697205,98.536713 
	C325.235809,98.820183 317.527161,98.873222 309.120544,98.617691 
	C291.175049,88.330429 273.836212,78.504219 256.745758,68.263412 
	C252.589981,65.773209 249.251419,61.919182 245.740921,58.428307 
	C247.505127,56.323788 249.065506,54.483212 250.625870,52.642635 
	C258.524994,58.072136 266.295197,63.701778 274.349365,68.890625 
	C292.685608,80.703636 312.126984,90.389320 332.697205,98.536713 
z"/>
<path fill="#3296FA" opacity="1.000000" stroke="none" 
	d="
M332.527344,316.854523 
	C332.198914,316.869110 331.892090,316.958191 331.376740,317.191650 
	C330.318512,316.235291 329.552399,315.150848 328.651917,314.192688 
	C324.220947,309.477661 323.769104,307.163483 326.899048,301.316254 
	C331.436493,292.839508 334.295441,284.044067 334.042267,274.254303 
	C333.445282,251.175262 312.332092,230.207153 289.192657,229.956131 
	C285.381989,229.914780 281.572266,229.782318 277.462097,229.430939 
	C289.690002,225.426453 301.595123,227.624908 313.718811,233.298279 
	C318.042267,236.447250 321.819977,239.242325 325.597717,242.037399 
	C332.040131,249.695145 336.876801,258.166138 338.875122,268.952820 
	C339.054779,273.856354 339.162506,277.918152 339.270203,281.979950 
	C337.184326,288.402161 335.454163,294.970673 332.893555,301.197662 
	C331.036438,305.713898 330.844452,309.452515 334.489807,313.594788 
	C333.898010,315.071136 333.212677,315.962830 332.527344,316.854523 
z"/>
<path fill="#F33A59" opacity="1.000000" stroke="none" 
	d="
M59.733292,169.306763 
	C60.013805,173.401062 59.334846,177.754440 60.107231,181.832962 
	C61.640614,189.929825 69.347061,195.790298 77.687645,195.984619 
	C81.505226,196.073578 85.326828,195.990280 89.622223,195.964325 
	C90.097832,195.943558 90.311081,195.884232 90.302780,196.294983 
	C90.246819,198.728546 90.199158,200.751358 89.681160,202.853394 
	C87.547623,202.955276 85.857986,203.177567 84.226410,202.961472 
	C80.065643,202.410446 78.629990,204.044556 78.924324,208.221832 
	C79.262596,213.022751 79.210426,217.877365 78.943703,222.687332 
	C78.682610,227.395630 79.453461,231.585388 82.984383,234.960068 
	C76.658119,235.172180 73.212654,232.232834 73.068436,226.038239 
	C72.894272,218.557434 73.027176,211.069489 73.027176,203.199066 
	C63.559101,201.522491 56.321098,197.141525 54.087654,187.252609 
	C52.540264,180.401306 54.457958,174.421631 59.733292,169.306763 
z"/>
<path fill="#C87361" opacity="1.000000" stroke="none" 
	d="
M339.718811,281.984253 
	C339.162506,277.918152 339.054779,273.856354 338.979614,269.319031 
	C344.034790,268.834595 349.057434,268.825684 354.543915,268.745483 
	C357.716644,268.745239 360.425568,268.816284 363.572815,268.773285 
	C365.840576,268.721771 367.670166,268.779968 369.499390,268.847595 
	C374.418274,269.029510 377.252289,271.455170 377.016205,275.543671 
	C376.754791,280.070618 373.900085,281.941010 369.663818,281.967072 
	C361.165131,282.019318 352.665955,281.988617 344.166962,281.991638 
	C342.833801,281.992126 341.500610,281.989624 339.718811,281.984253 
z"/>
<path fill="#FDC535" opacity="1.000000" stroke="none" 
	d="
M90.151505,202.774170 
	C90.199158,200.751358 90.246819,198.728546 90.412445,196.280151 
	C107.211800,194.912003 120.574783,202.743698 133.513474,211.899551 
	C135.668930,213.424835 138.499313,213.996323 141.404617,215.011566 
	C140.631836,221.544769 136.419159,223.695374 130.931137,220.326431 
	C125.753052,217.147797 120.746567,213.689621 115.344864,210.270844 
	C107.935524,205.708527 100.336853,202.853378 91.185532,202.877914 
	C90.546753,202.842850 90.151505,202.774170 90.151505,202.774170 
z"/>
<path fill="#FF5B76" opacity="1.000000" stroke="none" 
	d="
M89.681168,202.853394 
	C90.151505,202.774170 90.546753,202.842850 90.744583,202.879349 
	C90.852837,210.486847 90.747345,218.057693 90.679413,225.628876 
	C90.636002,230.468079 88.692192,233.863358 83.353287,235.001038 
	C79.453461,231.585388 78.682610,227.395630 78.943703,222.687332 
	C79.210426,217.877365 79.262596,213.022751 78.924324,208.221832 
	C78.629990,204.044556 80.065643,202.410446 84.226410,202.961472 
	C85.857986,203.177567 87.547623,202.955276 89.681168,202.853394 
z"/>
<path fill="#A65548" opacity="1.000000" stroke="none" 
	d="
M332.962158,316.888489 
	C333.212677,315.962830 333.898010,315.071136 334.803101,313.927582 
	C338.061249,311.856506 340.627960,312.532898 343.046967,314.970245 
	C352.155243,324.147736 361.379883,333.210510 370.434753,342.440002 
	C375.169464,347.266083 375.123962,352.329407 370.368164,358.070618 
	C370.796783,351.895142 368.042389,347.236603 363.546570,342.975922 
	C355.623322,335.467010 348.157349,327.475647 340.236603,319.963928 
	C338.530060,318.345551 335.706177,317.905365 332.962158,316.888489 
z"/>
<path fill="#FCDB3A" opacity="1.000000" stroke="none" 
	d="
M234.183487,58.946877 
	C232.478668,57.000637 230.773834,55.054401 228.897888,52.833183 
	C227.287918,43.353024 230.454300,38.736645 239.688553,37.602493 
	C247.703537,48.087238 247.150055,53.742947 237.681702,59.625011 
	C236.299683,59.440117 235.241577,59.193497 234.183487,58.946877 
z"/>
<path fill="#FCC937" opacity="1.000000" stroke="none" 
	d="
M238.005615,59.563278 
	C247.150055,53.742947 247.703537,48.087238 240.059509,37.685097 
	C248.386765,38.277519 251.534805,42.518646 250.685257,52.238476 
	C249.065506,54.483212 247.505127,56.323788 245.392029,58.514496 
	C242.561417,59.097511 240.283508,59.330395 238.005615,59.563278 
z"/>
<path fill="#FDC535" opacity="1.000000" stroke="none" 
	d="
M93.495636,163.479095 
	C93.224709,163.706848 92.680717,163.818253 91.842682,163.910538 
	C92.106613,163.715179 92.664597,163.538956 93.495636,163.479095 
z"/>
<path fill="#96A2D4" opacity="1.000000" stroke="none" 
	d="
M233.000000,218.891083 
	C221.522446,218.890961 210.544434,218.834702 199.567566,218.922333 
	C195.873978,218.951828 192.363647,218.175079 192.323746,214.008286 
	C192.283508,209.809540 195.775894,209.042206 199.482895,209.048508 
	C231.251190,209.102600 263.019958,209.019424 294.787262,209.203171 
	C297.100006,209.216553 300.335510,210.363586 301.511963,212.092621 
	C303.829224,215.498260 300.708862,218.830582 295.373352,218.865616 
	C283.730988,218.942032 272.087769,218.890732 260.444916,218.891190 
	C251.463272,218.891541 242.481644,218.891220 233.000000,218.891083 
z"/>
<path fill="#96A2D4" opacity="1.000000" stroke="none" 
	d="
M301.540436,164.659912 
	C301.968506,170.316498 300.824799,171.861984 295.812469,171.874786 
	C267.313538,171.947510 238.814316,171.925568 210.315247,171.889313 
	C207.140854,171.885269 204.096512,171.268082 204.019501,167.164200 
	C203.936752,162.753693 207.109619,162.123474 210.499634,162.120209 
	C238.832062,162.092926 267.164734,162.061310 295.496521,162.199249 
	C297.451416,162.208755 299.399750,163.570389 301.540436,164.659912 
z"/>
<path fill="#909DD1" opacity="1.000000" stroke="none" 
	d="
M247.000244,195.037521 
	C240.836349,195.035706 235.172348,195.018539 229.508453,195.038177 
	C226.491928,195.048630 224.110916,194.120361 224.013458,190.688431 
	C223.908020,186.975632 226.320068,185.949234 229.602737,185.953079 
	C251.758789,185.979019 273.914917,185.980469 296.070923,185.950745 
	C299.272552,185.946457 301.892548,186.738358 301.884888,190.476883 
	C301.877106,194.268997 298.999298,195.001617 295.976929,195.010712 
	C279.818115,195.059402 263.659119,195.035965 247.000244,195.037521 
z"/>
<path fill="#909CD1" opacity="1.000000" stroke="none" 
	d="
M265.561218,232.975830 
	C262.218170,235.927460 258.404144,238.845322 254.285782,241.916901 
	C235.028336,242.046417 216.075241,242.022293 197.122147,241.997925 
	C195.958344,241.996414 194.503769,242.436859 193.688339,241.902603 
	C191.694656,240.596420 188.761383,239.042984 188.460281,237.217316 
	C187.972946,234.262726 190.563690,232.866714 193.765518,232.890442 
	C206.234253,232.982849 218.704086,232.922455 231.173523,232.924606 
	C242.479095,232.926559 253.784668,232.935944 265.561218,232.975830 
z"/>
<path fill="#909DD1" opacity="1.000000" stroke="none" 
	d="
M270.000000,138.963409 
	C278.817444,138.964142 287.134979,138.987228 295.452301,138.954681 
	C298.774231,138.941681 301.800354,139.741776 301.768066,143.616455 
	C301.735535,147.520859 298.733887,148.086823 295.374603,148.073669 
	C275.745728,147.996765 256.116394,148.020386 236.487274,148.051819 
	C233.282867,148.056946 230.125168,147.849258 230.008743,143.724197 
	C229.883835,139.298447 233.124420,138.932571 236.563004,138.947052 
	C247.541824,138.993301 258.520966,138.963745 270.000000,138.963409 
z"/>
<path fill="#96A2D4" opacity="1.000000" stroke="none" 
	d="
M331.804565,209.078979 
	C333.106323,209.080124 333.939606,209.087067 334.772858,209.081116 
	C338.223297,209.056534 341.309357,210.474731 340.597626,214.074234 
	C340.220306,215.982773 337.032623,218.287933 334.810791,218.674835 
	C330.605408,219.407104 326.179810,218.962967 321.849274,218.859253 
	C318.528961,218.779739 315.819489,217.699966 316.010406,213.670212 
	C316.183777,210.010498 318.582672,208.999222 321.837097,209.066589 
	C325.002167,209.132095 328.169678,209.079544 331.804565,209.078979 
z"/>
<path fill="#96A2D4" opacity="1.000000" stroke="none" 
	d="
M340.890289,166.997803 
	C340.322418,168.367126 339.940643,169.545837 339.152618,170.300156 
	C336.774414,172.576614 319.926392,172.669937 317.449188,170.540619 
	C314.703827,168.180786 315.558105,163.128738 319.219208,162.697647 
	C325.110962,162.003922 331.148315,162.140945 337.084045,162.533371 
	C338.436890,162.622787 339.626129,165.187653 340.890289,166.997803 
z"/>
<path fill="#929ED2" opacity="1.000000" stroke="none" 
	d="
M316.019440,143.913208 
	C316.248962,140.188538 318.242096,138.946198 321.344818,138.959991 
	C326.156525,138.981400 331.019409,138.568420 335.754547,139.171783 
	C337.592560,139.405991 340.263275,141.701202 340.573395,143.415878 
	C341.104828,146.354034 338.866089,148.115128 335.577972,148.055908 
	C330.767700,147.969269 325.919464,148.366562 321.160919,147.862946 
	C319.349335,147.671234 317.741089,145.558212 316.019440,143.913208 
z"/>
<path fill="#929ED2" opacity="1.000000" stroke="none" 
	d="
M328.979919,185.958664 
	C331.626953,185.962830 333.979370,185.438797 335.902618,186.122375 
	C337.761566,186.783096 340.383789,188.622223 340.462463,190.064224 
	C340.547211,191.617981 338.193604,194.568680 336.684296,194.719940 
	C331.082092,195.281326 325.363342,195.233063 319.749664,194.729797 
	C318.381439,194.607117 316.245453,191.850204 316.287598,190.355942 
	C316.329376,188.873535 318.450928,186.626953 320.056732,186.197388 
	C322.702332,185.489700 325.667267,185.975800 328.979919,185.958664 
z"/>
<path fill="#FCC937" opacity="1.000000" stroke="none" 
	d="
M174.073441,187.929596 
	C171.628876,187.853622 169.350647,188.358093 167.750778,187.538437 
	C166.153214,186.719940 164.263901,184.555573 164.295715,183.018341 
	C164.326660,181.523254 166.497162,178.989227 167.962433,178.808289 
	C172.527328,178.244583 177.256317,178.181015 181.806808,178.786575 
	C183.362305,178.993576 185.484741,181.662598 185.657501,183.377090 
	C185.791931,184.711105 183.557800,187.047470 181.919998,187.610291 
	C179.686218,188.377853 177.018677,187.883163 174.073441,187.929596 
z"/>
<path fill="#FCC937" opacity="1.000000" stroke="none" 
	d="
M175.500031,204.437073 
	C175.835526,206.888489 176.719147,209.656021 175.711914,211.140808 
	C174.983688,212.214279 171.464890,212.280212 169.683746,211.565857 
	C166.190826,210.164963 162.721893,208.279831 159.883255,205.847839 
	C158.425385,204.598816 157.319458,201.412155 157.872421,199.682220 
	C158.825470,196.700638 161.793182,196.497086 164.505508,198.007797 
	C168.114029,200.017670 171.663559,202.133514 175.500031,204.437073 
z"/>
<path fill="#FCC937" opacity="1.000000" stroke="none" 
	d="
M160.428040,168.896744 
	C156.116989,165.367142 156.042725,162.797974 160.018326,160.227036 
	C163.220123,158.156509 166.423920,155.886719 169.954010,154.609940 
	C171.772049,153.952362 175.146576,154.524612 176.323471,155.859070 
	C178.289047,158.087769 177.339493,161.037476 174.510895,162.496216 
	C170.018951,164.812759 165.382660,166.849396 160.428040,168.896744 
z"/>
<path fill="#8F9DD2" opacity="1.000000" stroke="none" 
	d="
M326.094025,242.025208 
	C321.819977,239.242325 318.042267,236.447250 314.071960,233.374908 
	C321.161469,233.042572 328.459503,232.711334 335.714142,233.130356 
	C337.483978,233.232590 339.111664,235.796509 340.804688,237.228592 
	C339.212372,238.810013 337.853241,241.272537 335.974030,241.769882 
	C333.030823,242.548828 329.736145,241.999619 326.094025,242.025208 
z"/>
<path fill="#FD5874" opacity="1.000000" stroke="none" 
	d="
M147.130432,171.742630 
	C152.960266,173.800262 155.762955,177.107437 155.938004,182.433090 
	C156.136948,188.485733 153.147995,192.480835 147.306366,194.281387 
	C147.028656,186.473984 147.079544,179.108307 147.130432,171.742630 
z"/>
<path fill="#F23555" opacity="1.000000" stroke="none" 
	d="
M146.841980,171.532410 
	C147.079544,179.108307 147.028656,186.473984 146.962448,194.289825 
	C145.615662,194.903763 144.284195,195.067535 142.551056,195.244659 
	C142.108047,187.806549 142.066727,180.355103 142.266724,172.343658 
	C142.745590,171.623428 142.910950,171.407806 143.004150,171.136810 
	C144.187271,171.198593 145.370407,171.260376 146.841980,171.532410 
z"/>
<path fill="#FD5874" opacity="1.000000" stroke="none" 
	d="
M142.801483,171.032715 
	C142.910950,171.407806 142.745590,171.623428 142.324097,171.876221 
	C142.117569,171.782242 142.095016,171.595718 142.111145,171.130005 
	C142.149826,170.850830 142.598831,170.928604 142.801483,171.032715 
z"/>
<path fill="#FEFDFD" opacity="1.000000" stroke="none" 
	d="
M237.681702,59.625008 
	C240.283508,59.330395 242.561417,59.097511 245.188202,58.778442 
	C249.251419,61.919182 252.589981,65.773209 256.745758,68.263412 
	C273.836212,78.504219 291.175049,88.330429 308.650879,98.535919 
	C295.889954,98.831993 282.900696,98.953293 269.911377,98.960312 
	C237.260284,98.977951 204.609161,98.943985 171.492798,98.864883 
	C185.041092,90.854805 199.236404,83.209518 212.994705,74.845367 
	C220.328308,70.387024 226.906464,64.685989 234.004547,59.246357 
	C235.241577,59.193497 236.299683,59.440117 237.681702,59.625008 
z"/>
<path fill="#FEFEFF" opacity="1.000000" stroke="none" 
	d="
M283.438354,242.053665 
	C295.591644,241.041473 306.708588,243.469330 315.241486,252.790466 
	C325.081146,263.539124 327.782410,276.143158 322.414429,289.727203 
	C317.048981,303.304932 306.466492,311.199463 291.947540,311.609039 
	C284.990417,311.805328 277.938934,308.656555 270.409973,306.682068 
	C266.843048,302.911346 263.390656,299.758362 260.824036,296.000427 
	C252.371414,283.624268 252.953659,267.207336 262.450134,255.616882 
	C265.730652,251.612991 270.156219,248.547287 274.058777,245.053009 
	C274.058746,245.053009 273.992340,245.019516 274.259918,245.138153 
	C274.687225,245.182724 274.846954,245.108658 275.378448,244.992722 
	C278.312897,243.985123 280.875641,243.019394 283.438354,242.053665 
z"/>
<path fill="#3698FA" opacity="1.000000" stroke="none" 
	d="
M273.678589,245.007690 
	C270.156219,248.547287 265.730652,251.612991 262.450134,255.616882 
	C252.953659,267.207336 252.371414,283.624268 260.824036,296.000427 
	C263.390656,299.758362 266.843048,302.911346 270.044678,306.656036 
	C263.004883,306.242035 259.589142,300.582977 256.176086,295.492889 
	C244.711411,278.394958 252.145370,253.640610 270.911072,245.522110 
	C271.649353,245.202698 272.500061,245.143051 273.678589,245.007690 
z"/>
<path fill="#4DA5FB" opacity="1.000000" stroke="none" 
	d="
M282.988800,242.056427 
	C280.875641,243.019394 278.312897,243.985123 275.376617,244.715271 
	C274.998779,244.294785 274.994476,244.109879 274.990143,243.924988 
	C277.506500,243.303040 280.022888,242.681122 282.988800,242.056427 
z"/>
<path fill="#3698FA" opacity="1.000000" stroke="none" 
	d="
M274.753418,244.049072 
	C274.994476,244.109879 274.998779,244.294785 275.004883,244.757141 
	C274.846954,245.108658 274.687225,245.182724 274.277527,245.170868 
	C274.190643,244.781036 274.353668,244.477097 274.753418,244.049072 
z"/>
</svg>