<?xml version="1.0" encoding="UTF-8"?>
<svg version="1.1" xmlns="http://www.w3.org/2000/svg" width="602" height="445">
<path d="M0 0 C198.66 0 397.32 0 602 0 C602 146.85 602 293.7 602 445 C403.34 445 204.68 445 0 445 C0 298.15 0 151.3 0 0 Z " fill="#FEFEFE" transform="translate(0,0)"/>
<path d="M0 0 C1.78966187 0.48774902 1.78966187 0.48774902 3.61547852 0.98535156 C4.88190186 1.33952148 6.1483252 1.69369141 7.453125 2.05859375 C9.46086513 2.60984607 11.46943177 3.158015 13.4780426 3.70608521 C14.84912241 4.08044391 16.21991992 4.45583796 17.59043884 4.83224487 C25.52805596 7.00882772 33.50303602 9.03953746 41.48144531 11.06079102 C48.96433918 12.97865082 56.33714377 15.17122907 63.703125 17.49609375 C65.10896851 17.93646973 65.10896851 17.93646973 66.54321289 18.38574219 C72.44000596 20.23297471 72.44000596 20.23297471 74.703125 22.49609375 C74.94262695 25.48950195 74.94262695 25.48950195 74.94140625 29.296875 C74.95683094 30.6803483 74.97313494 32.06381202 74.99023438 33.44726562 C75.00666336 35.62643558 75.01563701 37.8049043 75.00854492 39.98413086 C75.0059163 42.08918229 75.03410623 44.1921082 75.06640625 46.296875 C75.06938721 47.55669189 75.07236816 48.81650879 75.07543945 50.11450195 C75.86067963 54.34490324 77.57605944 55.66083042 80.703125 58.49609375 C81.19140625 61.828125 81.19140625 61.828125 81.015625 65.30859375 C80.97050781 66.47003906 80.92539062 67.63148437 80.87890625 68.828125 C80.82089844 69.70855469 80.76289063 70.58898437 80.703125 71.49609375 C81.940625 71.43421875 83.178125 71.37234375 84.453125 71.30859375 C90.42242424 71.28958324 96.02970037 72.7185435 101.703125 74.49609375 C102.703125 75.49609375 102.703125 75.49609375 102.80078125 77.78125 C102.78337891 79.15603516 102.78337891 79.15603516 102.765625 80.55859375 C102.75660156 81.47769531 102.74757813 82.39679688 102.73828125 83.34375 C102.72087891 84.40916016 102.72087891 84.40916016 102.703125 85.49609375 C103.83492187 85.47289062 104.96671875 85.4496875 106.1328125 85.42578125 C107.61457675 85.40702474 109.09634812 85.38882441 110.578125 85.37109375 C111.32449219 85.35433594 112.07085937 85.33757812 112.83984375 85.3203125 C114.79506961 85.30269785 116.75054521 85.39289186 118.703125 85.49609375 C120.703125 87.49609375 120.703125 87.49609375 120.91430664 91.3205719 C120.90733535 93.0113932 120.88942236 94.70218868 120.86328125 96.39282227 C120.85726395 97.31500046 120.85124664 98.23717865 120.845047 99.18730164 C120.83182743 101.19532101 120.81468217 103.20331741 120.79412842 105.2112751 C120.75562737 109.48468295 120.75339344 113.75785269 120.74932861 118.03140926 C120.74158636 125.99181356 120.720169 133.95142135 120.63134766 141.91137695 C120.57100146 147.44494361 120.55958641 152.97676907 120.58004761 158.51060295 C120.57877339 160.61610629 120.55955661 162.72168074 120.52175903 164.82684517 C119.94444781 176.31906755 119.94444781 176.31906755 123.88842773 186.70578003 C126.38335137 188.94848756 128.88769559 190.68870029 131.703125 192.49609375 C143.04327325 204.83331787 145.37580845 218.89032062 145.09765625 235.03125 C144.73399775 242.71304002 142.25647575 248.8670599 138.5546875 255.578125 C137.06158666 258.94102642 137.47141562 261.84667106 137.703125 265.49609375 C138.363125 266.48609375 139.023125 267.47609375 139.703125 268.49609375 C140.7235791 268.40207275 141.7440332 268.30805176 142.79541016 268.21118164 C148.67988843 268.64021989 151.20948603 271.97837655 155.2265625 276.0546875 C156.01334381 276.83240005 156.80012512 277.61011261 157.61074829 278.41139221 C159.26824097 280.0597495 160.91686691 281.71706414 162.55712891 283.38256836 C165.06454641 285.91985341 167.60927759 288.41470569 170.16015625 290.90820312 C171.76804147 292.51711995 173.37359093 294.12837513 174.9765625 295.7421875 C175.73689789 296.48319199 176.49723328 297.22419647 177.28060913 297.98765564 C181.50165712 302.34166752 183.55952414 305.42654656 183.86587524 311.56044006 C183.51300988 315.7572088 181.29499289 317.87040483 178.515625 320.80859375 C175.53490377 322.59702649 173.29171735 323.25496723 169.79626465 323.0769043 C167.18300014 322.35176797 165.88972522 321.22432139 163.90039062 319.390625 C163.20494141 318.75487549 162.50949219 318.11912598 161.79296875 317.46411133 C161.10332031 316.81466553 160.41367187 316.16521973 159.703125 315.49609375 C159.08824219 314.92205811 158.47335937 314.34802246 157.83984375 313.7565918 C153.93479226 310.07043095 150.10737749 306.30392122 146.28222656 302.53515625 C144.88883976 301.1686031 143.48833936 299.80926797 142.08105469 298.45703125 C140.03178629 296.48669059 138.00628146 294.494456 135.984375 292.49609375 C135.35325806 291.89796875 134.72214111 291.29984375 134.07189941 290.68359375 C129.74851463 286.33990854 129.74851463 286.33990854 129.49804688 281.68359375 C129.56572266 280.63171875 129.63339844 279.57984375 129.703125 278.49609375 C125.94522263 275.9908255 123.05253589 275.75513789 118.703125 276.49609375 C116.18437253 277.59672508 113.81227511 278.88417174 111.390625 280.18359375 C99.00793629 286.23095335 85.31488648 286.00288482 72.46728516 281.7565918 C62.09037803 278.01802065 49.80364506 270.69713387 44.703125 260.49609375 C43.76183558 260.4927836 42.82054615 260.48947346 41.8507328 260.486063 C18.97578046 260.40516654 -3.89910415 260.31288125 -26.77396202 260.20856667 C-37.83594751 260.15838676 -48.89792539 260.11194457 -59.95996094 260.07421875 C-69.59857045 260.04133797 -79.2371218 260.00152865 -88.87566721 259.95330369 C-93.98196272 259.92799965 -99.08821945 259.90623002 -104.194561 259.89274979 C-108.99617436 259.87996473 -113.79765498 259.85794918 -118.59919548 259.82871056 C-120.36570366 259.81960684 -122.13223322 259.81393808 -123.89876366 259.81188011 C-126.30232111 259.80857718 -128.70549773 259.79315403 -131.10897827 259.77456665 C-132.16830505 259.77746875 -132.16830505 259.77746875 -133.24903238 259.78042948 C-138.06863258 259.72433617 -138.06863258 259.72433617 -140.296875 257.49609375 C-140.55135059 254.6190424 -140.55135059 254.6190424 -140.55757141 250.85987854 C-140.56139696 250.17016604 -140.56522251 249.48045354 -140.56916398 248.76984066 C-140.57952289 246.44747683 -140.57549644 244.12535891 -140.5715332 241.80297852 C-140.57587809 240.14254527 -140.58106049 238.48211403 -140.58702087 236.82168579 C-140.6004463 232.30312938 -140.60098561 227.78465643 -140.59845757 223.26608396 C-140.59739024 219.49850185 -140.60226514 215.7309368 -140.607063 211.96335834 C-140.61817048 203.07736598 -140.61858865 194.19141588 -140.61254883 185.30541992 C-140.6065071 176.12816857 -140.61882226 166.95107046 -140.6401189 157.77384526 C-140.65771293 149.90374953 -140.66373973 142.03370267 -140.66048115 134.16358799 C-140.6586646 129.45910443 -140.66134136 124.75473017 -140.67519569 120.05026436 C-140.68773373 115.62698644 -140.68586833 111.20394804 -140.67278481 106.78067398 C-140.67041064 105.15486128 -140.67318362 103.52903193 -140.68140793 101.9032383 C-140.6918067 99.68830841 -140.68383116 97.47419247 -140.6710968 95.2592926 C-140.67126454 94.0183915 -140.67143229 92.77749041 -140.67160511 91.49898624 C-140.296875 88.49609375 -140.296875 88.49609375 -138.99687481 86.59170437 C-136.119794 84.73749223 -132.91024834 85.18839388 -129.609375 85.30859375 C-128.90748047 85.32212891 -128.20558594 85.33566406 -127.48242188 85.34960938 C-125.75357671 85.38489193 -124.02512735 85.43869792 -122.296875 85.49609375 C-122.296875 82.19609375 -122.296875 78.89609375 -122.296875 75.49609375 C-110.80434036 69.74982643 -97.33526998 70.32960008 -84.77294922 70.36572266 C-82.537367 70.37111669 -80.30198266 70.36573024 -78.06640625 70.359375 C-76.62760373 70.36003531 -75.18880133 70.3613155 -73.75 70.36328125 C-72.46254883 70.36440918 -71.17509766 70.36553711 -69.84863281 70.36669922 C-66.296875 70.49609375 -66.296875 70.49609375 -60.296875 71.49609375 C-60.296875 58.95609375 -60.296875 46.41609375 -60.296875 33.49609375 C-62.276875 33.16609375 -64.256875 32.83609375 -66.296875 32.49609375 C-70.23327863 31.5941463 -74.13760938 30.57111783 -78.046875 29.55859375 C-79.10003906 29.29369141 -80.15320313 29.02878906 -81.23828125 28.75585938 C-82.24246094 28.49611328 -83.24664062 28.23636719 -84.28125 27.96875 C-85.19616211 27.73422119 -86.11107422 27.49969238 -87.05371094 27.25805664 C-89.296875 26.49609375 -89.296875 26.49609375 -91.296875 24.49609375 C-90.921875 21.87109375 -90.921875 21.87109375 -90.296875 19.49609375 C-75.27125499 15.1235407 -60.23534485 10.88103748 -45.07006836 7.01708984 C-39.68330304 5.64250581 -34.31156391 4.23637622 -28.9609375 2.7265625 C-27.96175293 2.44570801 -26.96256836 2.16485352 -25.93310547 1.87548828 C-24.07314642 1.34906103 -22.21520508 0.81542513 -20.35986328 0.27294922 C-19.5295459 0.03850098 -18.69922852 -0.19594727 -17.84375 -0.4375 C-17.13057617 -0.64431396 -16.41740234 -0.85112793 -15.68261719 -1.06420898 C-10.1925096 -2.07604727 -5.3307631 -1.47771769 0 0 Z " fill="#EAEDEF" transform="translate(266.296875,59.50390625)"/>
<path d="M0 0 C0.86420563 -0.00807175 1.72841125 -0.01614349 2.61880493 -0.02445984 C4.42537505 -0.03816316 6.23196957 -0.04894543 8.03857422 -0.05688477 C9.88305264 -0.06850894 11.72749482 -0.08912104 13.57177734 -0.1184082 C16.25641382 -0.16091218 18.94006979 -0.17721611 21.625 -0.1875 C22.44793549 -0.20500809 23.27087097 -0.22251617 24.1187439 -0.24055481 C27.77829162 -0.22661893 29.89256707 -0.18601444 32.78491211 2.16723633 C33.32253174 2.85068115 33.86015137 3.53412598 34.4140625 4.23828125 C47.09693985 11.17829622 61.12669416 14.26572752 75.46484375 14.84375 C76.76452087 14.90387268 76.76452087 14.90387268 78.0904541 14.96520996 C80.19807111 15.06190298 82.30603849 15.15090964 84.4140625 15.23828125 C84.46072948 36.71705768 84.49602528 58.19582577 84.51768684 79.67464256 C84.52801085 89.64704455 84.54209258 99.61941508 84.56494141 109.59179688 C84.58484095 118.28108701 84.59777075 126.97035437 84.60223949 135.65966666 C84.60485271 140.26297106 84.61101811 144.8662103 84.62552261 149.46949387 C84.63905233 153.7982962 84.64329454 158.12700625 84.64027786 162.45582771 C84.6408301 164.04819934 84.64483493 165.64057392 84.65247345 167.23292732 C84.66236275 169.39997797 84.6600537 171.56667604 84.65457153 173.73373413 C84.65641512 174.94865728 84.65825871 176.16358044 84.66015816 177.41531944 C84.4140625 180.23828125 84.4140625 180.23828125 82.4140625 182.23828125 C78.36430801 182.13444139 75.33985455 180.75531591 71.7890625 178.98828125 C41.2857621 164.78351417 -0.49779138 164.21624472 -32.5859375 172.23828125 C-32.5859375 117.12828125 -32.5859375 62.01828125 -32.5859375 5.23828125 C-22.60712524 0.24887512 -10.97723339 0.10001119 0 0 Z " fill="#E9ECEE" transform="translate(176.5859375,129.76171875)"/>
<path d="M0 0 C10.92361447 8.52912651 18.81580708 19.8749805 21.15625 33.68359375 C22.45061421 47.30083357 21.69162797 58.64836769 15.0078125 70.765625 C13.51471166 74.12852642 13.92454062 77.03417106 14.15625 80.68359375 C15.14625 82.16859375 15.14625 82.16859375 16.15625 83.68359375 C17.68693115 83.54256226 17.68693115 83.54256226 19.24853516 83.39868164 C25.13301343 83.82771989 27.66261103 87.16587655 31.6796875 91.2421875 C32.46646881 92.01990005 33.25325012 92.79761261 34.06387329 93.59889221 C35.72136597 95.2472495 37.36999191 96.90456414 39.01025391 98.57006836 C41.51767141 101.10735341 44.06240259 103.60220569 46.61328125 106.09570312 C48.22116647 107.70461995 49.82671593 109.31587513 51.4296875 110.9296875 C52.19002289 111.67069199 52.95035828 112.41169647 53.73373413 113.17515564 C57.95478212 117.52916752 60.01264914 120.61404656 60.31900024 126.74794006 C59.96613488 130.9447088 57.74811789 133.05790483 54.96875 135.99609375 C51.98802877 137.78452649 49.74484235 138.44246723 46.24938965 138.2644043 C43.63612514 137.53926797 42.34285022 136.41182139 40.35351562 134.578125 C39.65806641 133.94237549 38.96261719 133.30662598 38.24609375 132.65161133 C37.55644531 132.00216553 36.86679687 131.35271973 36.15625 130.68359375 C35.54136719 130.10955811 34.92648437 129.53552246 34.29296875 128.9440918 C30.38791726 125.25793095 26.56050249 121.49142122 22.73535156 117.72265625 C21.34196476 116.3561031 19.94146436 114.99676797 18.53417969 113.64453125 C16.48491129 111.67419059 14.45940646 109.681956 12.4375 107.68359375 C11.80638306 107.08546875 11.17526611 106.48734375 10.52502441 105.87109375 C6.20163963 101.52740854 6.20163963 101.52740854 5.95117188 96.87109375 C6.01884766 95.81921875 6.08652344 94.76734375 6.15625 93.68359375 C2.39834763 91.1783255 -0.49433911 90.94263789 -4.84375 91.68359375 C-7.36250247 92.78422508 -9.73459989 94.07167174 -12.15625 95.37109375 C-24.53893871 101.41845335 -38.23198852 101.19038482 -51.07958984 96.9440918 C-66.46242248 91.40199591 -76.99581694 80.77546162 -84.25 66.39453125 C-87.70062974 58.80354682 -88.11610133 51.90126406 -87.96875 43.68359375 C-87.95972656 42.71808594 -87.95070313 41.75257813 -87.94140625 40.7578125 C-87.91805635 38.39947276 -87.88531047 36.04167089 -87.84375 33.68359375 C-88.42342529 33.77447266 -89.00310059 33.86535156 -89.6003418 33.95898438 C-92.24338588 34.3710932 -94.88729162 34.77739392 -97.53125 35.18359375 C-98.44326172 35.32667969 -99.35527344 35.46976562 -100.29492188 35.6171875 C-101.62426758 35.82021484 -101.62426758 35.82021484 -102.98046875 36.02734375 C-103.79217529 36.15302734 -104.60388184 36.27871094 -105.44018555 36.40820312 C-112.07777522 37.16871111 -112.07777522 37.16871111 -114.71875 35.49609375 C-115.84375 33.68359375 -115.84375 33.68359375 -115.71875 31.12109375 C-114.84375 28.68359375 -114.84375 28.68359375 -111.84375 26.68359375 C-109.56477524 26.27235018 -107.26899525 25.95139777 -104.96875 25.68359375 C-104.30762207 25.59658203 -103.64649414 25.50957031 -102.96533203 25.41992188 C-99.68279339 24.99009364 -96.44862464 24.66025301 -93.140625 24.46484375 C-89.78466168 24.18901115 -86.99349752 23.88306156 -83.84375 22.68359375 C-81.86494321 20.26979065 -80.83077628 18.11874914 -79.7734375 15.19140625 C-78.8107258 12.59451165 -77.5949496 10.8107571 -75.84375 8.68359375 C-82.78103554 8.32884619 -89.19169102 8.78487294 -95.96875 10.18359375 C-108.0015553 12.64893493 -108.0015553 12.64893493 -113.84375 11.68359375 C-114.50375 11.02359375 -115.16375 10.36359375 -115.84375 9.68359375 C-115.51403521 6.38644582 -115.2210661 5.06090985 -112.84375 2.68359375 C-109.89756993 2.09258471 -107.00228046 1.6028924 -104.03125 1.18359375 C-102.28513698 0.92591177 -100.53904325 0.66809907 -98.79296875 0.41015625 C-97.94009277 0.28672852 -97.0872168 0.16330078 -96.20849609 0.03613281 C-93.24451521 -0.40574086 -90.29634938 -0.92957143 -87.34375 -1.44140625 C-83.58653786 -2.03947339 -79.90282139 -2.38442086 -76.10546875 -2.51953125 C-74.84863281 -2.5656958 -74.84863281 -2.5656958 -73.56640625 -2.61279297 C-71.92493904 -2.66369363 -70.28282364 -2.69767371 -68.640625 -2.71142578 C-63.55935509 -2.85602347 -60.0862911 -3.87835852 -55.6418457 -6.33642578 C-38.74973975 -15.54279554 -14.93675945 -10.5451418 0 0 Z " fill="#FBB0A1" transform="translate(389.84375,244.31640625)"/>
<path d="M0 0 C4.95 0 9.9 0 15 0 C15 51.81 15 103.62 15 157 C17.64 156.01 20.28 155.02 23 154 C54.2739057 147.43634078 95.15815509 149.99812707 123.703125 165.1796875 C127.32638219 166.47370793 129.8173492 165.53945475 133.2265625 163.984375 C134.01804687 163.57703125 134.80953125 163.1696875 135.625 162.75 C147.59292169 157.1865337 160.82772866 154.26013462 174 154 C174.17015625 154.6290625 174.3403125 155.258125 174.515625 155.90625 C176.14856099 161.67364095 178.24739717 166.68462901 181 172 C181 172.66 181 173.32 181 174 C157.30469807 174.04666452 133.60940299 174.08196157 109.91406441 174.10362434 C98.91258333 174.11394887 87.91113075 174.1280316 76.90966797 174.15087891 C67.32383674 174.17077685 57.73802614 174.18370787 48.15217483 174.18817699 C43.0737966 174.19079048 37.99547743 174.19695759 32.91711807 174.21146011 C28.14181597 174.2249873 23.36659752 174.22923255 18.59127808 174.22621536 C16.83442608 174.22676771 15.07757142 174.23077402 13.32073593 174.23841095 C10.93036387 174.24829624 8.54031164 174.24599261 6.14993286 174.24050903 C5.44760595 174.24633472 4.74527905 174.2521604 4.02166951 174.25816262 C-0.77175758 174.22824242 -0.77175758 174.22824242 -3 172 C-3.25447559 169.12294865 -3.25447559 169.12294865 -3.26069641 165.36378479 C-3.26452196 164.67407229 -3.26834751 163.98435979 -3.27228898 163.27374691 C-3.28264789 160.95138308 -3.27862144 158.62926516 -3.2746582 156.30688477 C-3.27900309 154.64645152 -3.28418549 152.98602028 -3.29014587 151.32559204 C-3.3035713 146.80703563 -3.30411061 142.28856268 -3.30158257 137.76999021 C-3.30051524 134.0024081 -3.30539014 130.23484305 -3.310188 126.46726459 C-3.32129548 117.58127223 -3.32171365 108.69532213 -3.31567383 99.80932617 C-3.3096321 90.63207482 -3.32194726 81.45497671 -3.3432439 72.27775151 C-3.36083793 64.40765578 -3.36686473 56.53760892 -3.36360615 48.66749424 C-3.3617896 43.96301068 -3.36446636 39.25863642 -3.37832069 34.55417061 C-3.39085873 30.13089269 -3.38899333 25.70785429 -3.37590981 21.28458023 C-3.37353564 19.65876753 -3.37630862 18.03293818 -3.38453293 16.40714455 C-3.3949317 14.19221466 -3.38695616 11.97809872 -3.3742218 9.76319885 C-3.37438954 8.52229775 -3.37455729 7.28139666 -3.37473011 6.00289249 C-3 3 -3 3 0 0 Z " fill="#86CAFE" transform="translate(129,145)"/>
<path d="M0 0 C3.1875 2.25 3.1875 2.25 5 4 C5 4.66 5 5.32 5 6 C5.66 6 6.32 6 7 6 C15.2789703 15.13223464 16.87070818 27.19955702 16.4140625 39.09375 C15.18577937 50.6813267 8.93673544 59.85471975 0.25 67.25 C-11.06232194 75.71341612 -22.1873915 76.3440542 -36 75 C-46.6070408 72.76561744 -54.64593208 65.4496667 -60.56640625 56.6796875 C-67.35198195 45.98627422 -68.93698068 34.29054807 -66.34765625 21.87109375 C-62.53195715 10.35849087 -55.47437885 2.02901912 -45 -4 C-29.25542129 -11.55227759 -14.28656696 -8.70587674 0 0 Z " fill="#FEFEFE" transform="translate(382,255)"/>
<path d="M0 0 C1.19310791 0.32516602 2.38621582 0.65033203 3.61547852 0.98535156 C4.88190186 1.33952148 6.1483252 1.69369141 7.453125 2.05859375 C9.46086513 2.60984607 11.46943177 3.158015 13.4780426 3.70608521 C14.84912241 4.08044391 16.21991992 4.45583796 17.59043884 4.83224487 C25.52805596 7.00882772 33.50303602 9.03953746 41.48144531 11.06079102 C48.0096843 12.73397353 54.45168454 14.60034134 60.8815918 16.61938477 C63.23026552 17.34916649 65.58174941 18.03285818 67.953125 18.68359375 C70.703125 19.49609375 70.703125 19.49609375 71.703125 20.49609375 C71.74376332 22.1622649 71.745846 23.8299747 71.703125 25.49609375 C55.53570313 30.68187058 39.07793173 34.92911878 22.6484375 39.1953125 C19.00851473 40.14359643 15.38226146 41.13486656 11.7578125 42.140625 C10.74130615 42.41777344 9.7247998 42.69492188 8.67749023 42.98046875 C6.7133207 43.51607957 4.75166545 44.06103601 2.79321289 44.6171875 C-9.11534508 47.8308596 -18.22698296 46.09055014 -29.984375 42.74609375 C-31.87446289 42.22402344 -31.87446289 42.22402344 -33.80273438 41.69140625 C-36.35888605 40.98535924 -38.91381512 40.27487164 -41.4675293 39.56005859 C-47.73008683 37.82003783 -54.01498016 36.16463932 -60.296875 34.49609375 C-65.4043855 33.13314446 -70.50787821 31.75642535 -75.609375 30.37109375 C-76.25962646 30.19755371 -76.90987793 30.02401367 -77.57983398 29.84521484 C-79.48331933 29.3367674 -81.38428851 28.81892901 -83.28515625 28.30078125 C-84.39415283 28.00155762 -85.50314941 27.70233398 -86.64575195 27.39404297 C-89.296875 26.49609375 -89.296875 26.49609375 -91.296875 24.49609375 C-90.921875 21.87109375 -90.921875 21.87109375 -90.296875 19.49609375 C-75.27125499 15.1235407 -60.23534485 10.88103748 -45.07006836 7.01708984 C-39.68330304 5.64250581 -34.31156391 4.23637622 -28.9609375 2.7265625 C-27.96175293 2.44570801 -26.96256836 2.16485352 -25.93310547 1.87548828 C-24.07314642 1.34906103 -22.21520508 0.81542513 -20.35986328 0.27294922 C-19.5295459 0.03850098 -18.69922852 -0.19594727 -17.84375 -0.4375 C-17.13057617 -0.64431396 -16.41740234 -0.85112793 -15.68261719 -1.06420898 C-10.1925096 -2.07604727 -5.3307631 -1.47771769 0 0 Z " fill="#5E699E" transform="translate(266.296875,59.50390625)"/>
<path d="M0 0 C4.75990291 0.52994353 9.21657201 1.18859845 13.828125 2.5234375 C14.87613281 2.8225 15.92414063 3.1215625 17.00390625 3.4296875 C18.07511719 3.74164063 19.14632812 4.05359375 20.25 4.375 C24.49585945 5.5984711 28.74544985 6.80709868 33 8 C34.02931641 8.29551758 35.05863281 8.59103516 36.11914062 8.89550781 C47.84269554 12.087045 56.55529512 10.98139555 68.1875 7.75 C69.37480713 7.431521 70.56211426 7.11304199 71.78540039 6.78491211 C75.19371753 5.8687479 78.59744885 4.93732034 82 4 C84.34805928 3.35658317 86.6963333 2.71414328 89.04614258 2.07714844 C90.79198799 1.60209459 92.5348186 1.11599808 94.27734375 0.62890625 C97 0 97 0 101 0 C101.1238722 5.03530963 101.21446514 10.06972697 101.2746582 15.10620117 C101.29975714 16.81827245 101.33384429 18.53023704 101.37719727 20.24194336 C101.43805739 22.70713645 101.46625432 25.17090985 101.48828125 27.63671875 C101.51408768 28.39836838 101.5398941 29.16001801 101.56648254 29.94474792 C101.56856737 33.92150881 101.19837361 35.74966989 98.69946289 38.90307617 C96.55089537 40.57206834 94.80314928 41.87147429 92.3203125 42.9140625 C91.64766357 43.19886475 90.97501465 43.48366699 90.28198242 43.77709961 C89.57017822 44.05690674 88.85837402 44.33671387 88.125 44.625 C86.98865112 45.0727478 86.98865112 45.0727478 85.8293457 45.52954102 C60.39709722 55.213328 32.80290383 53.07758768 8.08496094 42.63842773 C4.34529343 40.94204884 1.98027592 39.61223447 0 36 C-0.25673097 33.16657345 -0.35005816 30.5616281 -0.29296875 27.734375 C-0.28872391 26.94097717 -0.28447906 26.14757935 -0.28010559 25.33013916 C-0.2633504 22.8030768 -0.22570506 20.27682017 -0.1875 17.75 C-0.17244903 16.03386571 -0.15876134 14.31771888 -0.14648438 12.6015625 C-0.11345735 8.40073254 -0.06169765 4.20050275 0 0 Z " fill="#8F9BD0" transform="translate(206,94)"/>
<path d="M0 0 C1.5218491 0.40082824 3.0439836 0.80057452 4.56640625 1.19921875 C14.45682197 3.8022754 24.29214822 6.58352488 34.11328125 9.43652344 C35.94793503 9.96671335 37.78629998 10.48401737 39.625 11 C40.79804688 11.33515625 41.97109375 11.6703125 43.1796875 12.015625 C51.92007254 13.81342849 58.96629799 11.93445598 67.4375 9.625 C68.62706299 9.30877686 69.81662598 8.99255371 71.04223633 8.66674805 C78.36254139 6.708097 85.65625227 4.66118047 92.9375 2.5625 C121.18670277 -5.5747323 121.18670277 -5.5747323 128.75 -4.25 C129.74 -3.59 130.73 -2.93 131.75 -2.25 C131.9375 0.375 131.9375 0.375 131.75 2.75 C115.58257813 7.93577683 99.12480673 12.18302503 82.6953125 16.44921875 C79.05538973 17.39750268 75.42913646 18.38877281 71.8046875 19.39453125 C70.78818115 19.67167969 69.7716748 19.94882813 68.72436523 20.234375 C66.7601957 20.76998582 64.79854045 21.31494226 62.84008789 21.87109375 C50.93152992 25.08476585 41.81989204 23.34445639 30.0625 20 C28.80244141 19.65195313 27.54238281 19.30390625 26.24414062 18.9453125 C23.68798895 18.23926549 21.13305988 17.52877789 18.5793457 16.81396484 C12.31678817 15.07394408 6.03189484 13.41854557 -0.25 11.75 C-5.3575105 10.38705071 -10.46100321 9.0103316 -15.5625 7.625 C-16.21275146 7.45145996 -16.86300293 7.27791992 -17.53295898 7.09912109 C-19.43644433 6.59067365 -21.33741351 6.07283526 -23.23828125 5.5546875 C-24.34727783 5.25546387 -25.45627441 4.95624023 -26.59887695 4.64794922 C-29.25 3.75 -29.25 3.75 -31.25 1.75 C-30.875 -0.875 -30.875 -0.875 -30.25 -3.25 C-20.24605949 -6.58464684 -9.76527028 -2.6388719 0 0 Z " fill="#404C77" transform="translate(206.25,82.25)"/>
<path d="M0 0 C2.45862401 -0.05383848 4.9160755 -0.09359038 7.375 -0.125 C8.42300781 -0.15013672 8.42300781 -0.15013672 9.4921875 -0.17578125 C11.32897486 -0.19344267 13.16601963 -0.10303261 15 0 C17.66639907 2.66639907 17.23641421 4.65244558 17.24884033 8.27766418 C17.24164978 9.15879379 17.23445923 10.0399234 17.22705078 10.94775391 C17.22734283 11.87463516 17.22763489 12.80151642 17.22793579 13.75648499 C17.22653889 16.82993834 17.21096075 19.90315133 17.1953125 22.9765625 C17.19158365 25.10362618 17.18873608 27.23069156 17.18673706 29.35775757 C17.17909052 34.96379312 17.15943327 40.5697255 17.1373291 46.17572021 C17.11689264 51.89317428 17.10774006 57.61064496 17.09765625 63.328125 C17.07618834 74.55212873 17.0420401 85.7760558 17 97 C13.18468018 95.73854404 9.42011237 94.42714652 5.6875 92.9375 C4.39392578 92.42509766 4.39392578 92.42509766 3.07421875 91.90234375 C1 91 1 91 0 90 C-0.09519368 87.2001028 -0.12553944 84.42493826 -0.11352539 81.62475586 C-0.11367142 80.74678848 -0.11381744 79.86882111 -0.1139679 78.96424866 C-0.11326844 76.04775565 -0.10547455 73.13132567 -0.09765625 70.21484375 C-0.09579218 68.19845108 -0.09436823 66.18205796 -0.09336853 64.16566467 C-0.08954244 58.84734862 -0.07971139 53.5290597 -0.06866455 48.21075439 C-0.05845238 42.78829312 -0.05387133 37.36582748 -0.04882812 31.94335938 C-0.0380892 21.29556097 -0.02101169 10.64778274 0 0 Z " fill="#85CAFE" transform="translate(370,145)"/>
<path d="M0 0 C1.96124268 1.30613708 1.96124268 1.30613708 3.85644531 3.16186523 C4.57358704 3.85356308 5.29072876 4.54526093 6.02960205 5.25791931 C6.78811462 6.01714188 7.5466272 6.77636444 8.328125 7.55859375 C9.11773621 8.3363063 9.90734741 9.11401886 10.72088623 9.91529846 C12.38804549 11.56590493 14.04864296 13.22316138 15.703125 14.88647461 C18.23213898 17.41960988 20.79369238 19.91618926 23.359375 22.41210938 C24.97606872 24.02132007 26.59072133 25.63258451 28.203125 27.24609375 C28.9697345 27.98709824 29.73634399 28.72810272 30.52618408 29.49156189 C34.78039422 33.83957287 36.86315602 36.90818507 37.16522217 43.06434631 C36.80703385 47.26068724 34.59250915 49.37363318 31.8125 52.3125 C28.83175593 54.10094644 26.58864221 54.75905976 23.09313965 54.58053589 C20.48096709 53.85604533 19.18675927 52.73075771 17.19726562 50.89892578 C16.50181641 50.26319641 15.80636719 49.62746704 15.08984375 48.97247314 C14.40019531 48.32155701 13.71054687 47.67064087 13 47 C12.38511719 46.4214325 11.77023437 45.84286499 11.13671875 45.24676514 C7.23514282 41.52483221 3.40862267 37.7250322 -0.42089844 33.92919922 C-1.81601438 32.55079321 -3.21649325 31.17779568 -4.62207031 29.81005859 C-6.66646463 27.82021308 -8.69411143 25.81460681 -10.71875 23.8046875 C-11.34986694 23.19623993 -11.98098389 22.58779236 -12.63122559 21.96090698 C-16.87098966 17.70012089 -16.87098966 17.70012089 -17.5090332 14.23754883 C-16.75823341 10.93727062 -14.99697538 9.24721009 -12.6875 6.8125 C-11.88699219 5.95269531 -11.08648437 5.09289062 -10.26171875 4.20703125 C-6.85200774 0.87976576 -4.77268058 -0.6029877 0 0 Z " fill="#C8705D" transform="translate(413,328)"/>
<path d="M0 0 C0.1238722 5.03530963 0.21446514 10.06972697 0.2746582 15.10620117 C0.29975714 16.81827245 0.33384429 18.53023704 0.37719727 20.24194336 C0.43805739 22.70713645 0.46625432 25.17090985 0.48828125 27.63671875 C0.51408768 28.39836838 0.5398941 29.16001801 0.56648254 29.94474792 C0.56856737 33.92150881 0.19837361 35.74966989 -2.30053711 38.90307617 C-4.44910463 40.57206834 -6.19685072 41.87147429 -8.6796875 42.9140625 C-9.35233643 43.19886475 -10.02498535 43.48366699 -10.71801758 43.77709961 C-11.42982178 44.05690674 -12.14162598 44.33671387 -12.875 44.625 C-14.01134888 45.0727478 -14.01134888 45.0727478 -15.1706543 45.52954102 C-40.51167396 55.17859098 -68.46354154 53.30232657 -93.00292969 42.46264648 C-95.73274059 41.20265279 -97.85784633 40.14215367 -100 38 C-100.125 34.875 -100.125 34.875 -100 32 C-99.48203857 32.2266333 -98.96407715 32.4532666 -98.43041992 32.68676758 C-71.30089144 44.49779191 -44.54126319 48.65096702 -16 38 C-15.01 37.34 -14.02 36.68 -13 36 C-12.66185252 33.52508886 -12.51127661 31.28648312 -12.48828125 28.8046875 C-12.46135445 27.74352219 -12.46135445 27.74352219 -12.43388367 26.66091919 C-12.37965558 24.39900697 -12.34584684 22.13730716 -12.3125 19.875 C-12.27933774 18.34241827 -12.2448491 16.80986462 -12.20898438 15.27734375 C-12.12392273 11.51838221 -12.05717247 7.759485 -12 4 C-13.32 3.67 -14.64 3.34 -16 3 C-14.08487728 2.49411853 -12.16783078 1.99551609 -10.25 1.5 C-9.18265625 1.2215625 -8.1153125 0.943125 -7.015625 0.65625 C-4 0 -4 0 0 0 Z " fill="#7C88C0" transform="translate(307,94)"/>
<path d="M0 0 C0.99 0.66 1.98 1.32 3 2 C3.35302734 4.9934082 3.35302734 4.9934082 3.3359375 8.80078125 C3.34845514 10.18424944 3.36149249 11.567713 3.375 12.95117188 C3.37892325 15.13029459 3.37502385 17.30895853 3.36035156 19.48803711 C3.35174925 21.59297548 3.37351895 23.69601018 3.3984375 25.80078125 C3.39336182 27.69050659 3.39336182 27.69050659 3.38818359 29.6184082 C3.69625205 33.17517728 3.69625205 33.17517728 6.50708008 35.46826172 C9.28502409 38.28946232 9.5687097 39.70380602 9.56648254 43.59785461 C9.54067612 44.2938829 9.51486969 44.98991119 9.48828125 45.70703125 C9.48120651 46.43242599 9.47413177 47.15782074 9.46684265 47.90519714 C9.43898406 50.20870703 9.37627191 52.50973251 9.3125 54.8125 C9.28740563 56.37952203 9.26459444 57.9465824 9.24414062 59.51367188 C9.18918681 63.34339656 9.10298226 67.17127797 9 71 C5.6547883 70.27238626 4.10757635 69.4558202 1.75 66.9375 C1.22921875 66.38964844 0.7084375 65.84179688 0.171875 65.27734375 C-0.21484375 64.85582031 -0.6015625 64.43429688 -1 64 C-3.88080957 65.17366316 -5.34257199 66.35092741 -7.5625 68.625 C-10 71 -10 71 -13 71 C-13.12394421 66.39194479 -13.21449675 61.78486719 -13.2746582 57.17553711 C-13.29974547 55.60895886 -13.33382415 54.04249701 -13.37719727 52.47631836 C-13.43811226 50.21959691 -13.46626499 47.96442706 -13.48828125 45.70703125 C-13.51408768 45.01100296 -13.5398941 44.31497467 -13.56648254 43.59785461 C-13.56871484 39.69482042 -13.25737679 38.26869894 -10.51367188 35.40429688 C-9.68416016 34.61087891 -8.85464844 33.81746094 -8 33 C-7.23105656 30.02603805 -7.23105656 30.02603805 -7.29296875 26.82421875 C-7.26396484 25.66728516 -7.23496094 24.51035156 -7.20507812 23.31835938 C-7.19927734 22.12017578 -7.19347656 20.92199219 -7.1875 19.6875 C-7.16236328 18.46998047 -7.13722656 17.25246094 -7.11132812 15.99804688 C-7.05251099 12.99837313 -7.01618961 10.00015702 -7 7 C-4.69 6.34 -2.38 5.68 0 5 C0 3.35 0 1.7 0 0 Z " fill="#FEE886" transform="translate(338,80)"/>
<path d="M0 0 C7 1 7 1 8 2 C9.02624472 8.42125426 9.14247929 14.90910945 9.11352539 21.39697266 C9.11367142 22.27625427 9.11381744 23.15553589 9.1139679 24.0614624 C9.11327869 26.92902206 9.10553342 29.79651438 9.09765625 32.6640625 C9.09578854 34.66759201 9.0943663 36.67112197 9.09336853 38.6746521 C9.08957117 43.91885667 9.07976496 49.16303304 9.06866455 54.40722656 C9.05839031 59.77017841 9.05385808 65.13313487 9.04882812 70.49609375 C9.03813992 80.99740814 9.02109732 91.49870172 9 102 C6.03 101.67 3.06 101.34 0 101 C0 67.67 0 34.34 0 0 Z " fill="#D8DCE2" transform="translate(361,133)"/>
<path d="M0 0 C0.14541967 4.22880411 0.23411527 8.45696413 0.3125 12.6875 C0.35439453 13.88568359 0.39628906 15.08386719 0.43945312 16.31835938 C0.56493282 25.32780146 0.56493282 25.32780146 -2.46875 28.9375 C-3.72171875 29.9584375 -3.72171875 29.9584375 -5 31 C-5.80764788 34.10172309 -5.80764788 34.10172309 -5.8125 37.3125 C-5.9053125 40.1278125 -5.9053125 40.1278125 -6 43 C-11.94 43.33 -17.88 43.66 -24 44 C-24 31.46 -24 18.92 -24 6 C-20.596875 5.01 -17.19375 4.02 -13.6875 3 C-12.61846436 2.68675781 -11.54942871 2.37351562 -10.44799805 2.05078125 C-9.60277588 1.80714844 -8.75755371 1.56351562 -7.88671875 1.3125 C-7.02264404 1.06113281 -6.15856934 0.80976562 -5.26831055 0.55078125 C-3 0 -3 0 0 0 Z " fill="#FDFDFD" transform="translate(331,87)"/>
<path d="M0 0 C2.31 0 4.62 0 7 0 C8.88885195 1.88885195 8.12010635 4.64051759 8.12442017 7.15324402 C8.12082489 8.0379689 8.11722961 8.92269379 8.11352539 9.83422852 C8.11367142 10.76096375 8.11381744 11.68769897 8.1139679 12.64251709 C8.11326838 15.72133687 8.10547421 18.80009697 8.09765625 21.87890625 C8.09579221 24.00740018 8.09436824 26.13589453 8.09336853 28.26438904 C8.08954228 33.8786232 8.07971108 39.49283168 8.06866455 45.10705566 C8.05845273 50.83113253 8.0538714 56.55521353 8.04882812 62.27929688 C8.03808891 73.51954256 8.0210112 84.75976915 8 96 C2.25 94.125 2.25 94.125 0 93 C0 62.31 0 31.62 0 0 Z " fill="#50B1FB" transform="translate(379,146)"/>
<path d="M0 0 C1.17191895 0.00346436 2.34383789 0.00692871 3.55126953 0.01049805 C12.10851405 0.11371418 20.55740878 0.69022343 29.0625 1.625 C30.13540283 1.74254639 31.20830566 1.86009277 32.3137207 1.98120117 C52.84926862 4.47426862 52.84926862 4.47426862 56.6875 8.3125 C56.35778521 11.60964793 56.0648161 12.9351839 53.6875 15.3125 C48.61586089 15.5316449 43.4122054 14.45375772 38.42358398 13.59448242 C25.00554939 11.32246756 11.91633058 10.85589551 -1.66772461 10.80126953 C-4.36337949 10.78566448 -7.05843149 10.75277846 -9.75390625 10.71875 C-10.57250626 10.72177124 -11.39110626 10.72479248 -12.23451233 10.72790527 C-17.87216265 10.65251182 -17.87216265 10.65251182 -20.06871033 8.9564209 C-21.3125 7.3125 -21.3125 7.3125 -21 4.625 C-20.773125 3.861875 -20.54625 3.09875 -20.3125 2.3125 C-13.47637262 0.23768988 -7.12037436 -0.03446504 0 0 Z " fill="#AA9FAB" transform="translate(182.3125,265.6875)"/>
<path d="M0 0 C0.79206848 -0.00599213 1.58413696 -0.01198425 2.40020752 -0.01815796 C4.64886556 -0.02954438 6.89597358 -0.01775828 9.14453125 0.00390625 C11.07776245 0.01852905 11.07776245 0.01852905 13.05004883 0.03344727 C16.1875 0.4375 16.1875 0.4375 18.1394043 1.80444336 C19.1875 3.4375 19.1875 3.4375 19 6 C18.1875 8.4375 18.1875 8.4375 16.1875 10.4375 C13.75854492 10.61694336 13.75854492 10.61694336 10.66796875 10.52734375 C9.51385498 10.50526855 8.35974121 10.48319336 7.1706543 10.46044922 C5.91808838 10.43225098 4.66552246 10.40405273 3.375 10.375 C-7.39265742 10.24664471 -17.91123555 10.67215141 -28.625 11.8125 C-29.82680908 11.93874756 -31.02861816 12.06499512 -32.2668457 12.19506836 C-38.28003833 12.87827902 -43.97532375 13.85350875 -49.8125 15.4375 C-55.01215577 15.92803356 -55.01215577 15.92803356 -57.75 14.25 C-58.8125 12.4375 -58.8125 12.4375 -58.875 9.9375 C-57.35544017 6.36206512 -55.33202701 5.93550611 -51.8125 4.4375 C-47.16190998 3.35737979 -42.4238712 2.82847678 -37.6875 2.25 C-36.65902451 2.12067581 -36.65902451 2.12067581 -35.60977173 1.98873901 C-23.74629496 0.53135349 -11.9471312 0.03071125 0 0 Z " fill="#AA9FAA" transform="translate(332.8125,192.5625)"/>
<path d="M0 0 C1.41374177 0.0039131 2.82748008 0.0093192 4.24121094 0.01611328 C4.95273315 0.01693909 5.66425537 0.01776489 6.39733887 0.01861572 C21.01146962 0.05750704 35.38896108 1.29117616 49.86621094 3.32861328 C50.97287109 3.47459961 52.07953125 3.62058594 53.21972656 3.77099609 C54.29416016 3.92665039 55.36859375 4.08230469 56.47558594 4.24267578 C57.92143066 4.44691162 57.92143066 4.44691162 59.39648438 4.65527344 C62.12105471 5.39809323 63.25083871 6.0241903 64.86621094 8.32861328 C64.55371094 11.51611328 64.55371094 11.51611328 63.86621094 14.32861328 C58.8809941 15.49105038 54.74389241 14.98993323 49.80371094 14.01611328 C32.95021202 11.00575711 16.50115511 10.05201639 -0.62524414 10.48999023 C-1.81657959 10.5102124 -3.00791504 10.53043457 -4.23535156 10.55126953 C-5.30092285 10.57970947 -6.36649414 10.60814941 -7.46435547 10.63745117 C-10.13378906 10.32861328 -10.13378906 10.32861328 -12.01416016 8.97485352 C-13.13378906 7.32861328 -13.13378906 7.32861328 -12.94628906 4.76611328 C-10.86192328 -1.48698407 -5.63364395 0.03996984 0 0 Z " fill="#AA9EAA" transform="translate(174.1337890625,192.67138671875)"/>
<path d="M0 0 C1.08433067 0.00117073 1.08433067 0.00117073 2.19056702 0.00236511 C3.32160606 -0.00583 3.32160606 -0.00583 4.47549438 -0.01419067 C6.94059464 -0.02584208 9.40515241 -0.0194052 11.87025452 -0.00935364 C12.70593964 -0.00852783 13.54162476 -0.00770203 14.40263367 -0.0068512 C28.34961152 0.02497325 41.98858324 0.87630049 55.74525452 3.30314636 C56.64195862 3.44913269 57.53866272 3.59511902 58.46253967 3.74552917 C59.34603088 3.90118347 60.22952209 4.05683777 61.13978577 4.21720886 C62.32278259 4.4214447 62.32278259 4.4214447 63.52967834 4.62980652 C66.08401466 5.40609958 67.71002778 6.60078788 69.74525452 8.30314636 C68.87025452 13.17814636 68.87025452 13.17814636 67.74525452 14.30314636 C62.3936448 14.79485409 57.1540387 14.29512387 51.87025452 13.42814636 C40.171829 11.51902831 28.48724486 10.36394905 16.63587952 10.02580261 C15.9342569 10.00573654 15.23263428 9.98567047 14.50975037 9.96499634 C10.98308567 9.86891369 7.45682744 9.79067699 3.92933655 9.73258972 C2.63882385 9.70431091 1.34831116 9.6760321 0.01869202 9.64689636 C-1.1422699 9.62820496 -2.30323181 9.60951355 -3.49937439 9.59025574 C-6.25474548 9.30314636 -6.25474548 9.30314636 -8.25474548 7.30314636 C-7.66210446 1.37673617 -5.8600817 0.08297075 0 0 Z " fill="#A99EA9" transform="translate(169.25474548339844,241.6968536376953)"/>
<path d="M0 0 C0.81424438 -0.00953705 1.62848877 -0.0190741 2.46740723 -0.02890015 C4.80278084 -0.05260489 7.13718516 -0.05506608 9.47265625 -0.05078125 C10.1811824 -0.05989532 10.88970856 -0.0690094 11.6197052 -0.07839966 C14.52684562 -0.05124783 16.4839947 0.00165421 18.91967773 1.67114258 C19.9375 3.3125 19.9375 3.3125 19.6875 5.9375 C18.9375 8.3125 18.9375 8.3125 17.9375 9.3125 C15.37042047 9.42402035 12.82598579 9.4747775 10.2578125 9.48828125 C8.62181163 9.50871448 6.98582521 9.53032952 5.34985352 9.55297852 C4.48643341 9.56418732 3.62301331 9.57539612 2.73342896 9.58694458 C-12.70641647 9.80693164 -27.51257107 10.78053574 -42.74609375 13.47265625 C-47.28820439 14.25095956 -51.45861689 14.64550188 -56.0625 14.3125 C-56.7225 13.6525 -57.3825 12.9925 -58.0625 12.3125 C-57.73278521 9.01535207 -57.4398161 7.6898161 -55.0625 5.3125 C-49.80706207 3.94032299 -44.42798737 3.13544823 -39.0625 2.3125 C-38.35899414 2.20373535 -37.65548828 2.0949707 -36.93066406 1.98291016 C-24.67446258 0.19921031 -12.36065587 0.07959398 0 0 Z " fill="#A99DA9" transform="translate(332.0625,168.6875)"/>
<path d="M0 0 C0.69147125 0.00077545 1.3829425 0.0015509 2.09536743 0.00234985 C2.81890411 -0.00315887 3.5424408 -0.0086676 4.28790283 -0.01434326 C6.66271933 -0.02612715 9.03695551 -0.0196698 11.41177368 -0.0093689 C12.62303421 -0.00763168 12.62303421 -0.00763168 13.85876465 -0.00585938 C24.64989193 0.02476039 35.30442101 0.41666983 46.03677368 1.6156311 C47.61833252 1.79195068 47.61833252 1.79195068 49.23184204 1.97183228 C56.00501741 2.82660362 62.43910138 4.33944716 68.97427368 6.3031311 C69.59927368 9.1781311 69.59927368 9.1781311 69.97427368 12.3031311 C67.97427368 14.3031311 67.97427368 14.3031311 65.53848267 14.33242798 C64.05070312 14.17870728 64.05070312 14.17870728 62.53286743 14.0218811 C60.90647339 13.85752563 60.90647339 13.85752563 59.2472229 13.68984985 C55.45894142 13.24224148 51.68321748 12.7323845 47.90615845 12.19937134 C33.95078191 10.27223987 20.10899839 9.84039093 6.03897095 9.68203735 C5.25417358 9.66999771 4.46937622 9.65795807 3.66079712 9.64555359 C2.17514303 9.62347552 0.68933401 9.60977469 -0.79647827 9.60560608 C-5.80131849 9.52753893 -5.80131849 9.52753893 -8.02572632 7.3031311 C-7.44802877 1.52615562 -5.75668746 0.08526057 0 0 Z " fill="#A99DA9" transform="translate(169.02572631835938,168.69686889648438)"/>
<path d="M0 0 C2.76675184 -0.00221458 5.53312162 -0.02050726 8.29980469 -0.03930664 C10.06282417 -0.04223621 11.82584552 -0.04422392 13.58886719 -0.04516602 C14.4138269 -0.05235153 15.23878662 -0.05953705 16.08874512 -0.06694031 C19.99400386 -0.05123641 21.92119613 -0.03064464 25.24511719 2.18530273 C24.37011719 8.06030273 24.37011719 8.06030273 23.24511719 9.18530273 C20.55858412 9.30917856 17.89406322 9.37201874 15.20605469 9.39624023 C13.50373212 9.422198 11.8014211 9.44892104 10.09912109 9.47631836 C8.7559079 9.49625854 8.7559079 9.49625854 7.38555908 9.51660156 C-6.92877748 9.7428053 -20.98808111 10.21823776 -35.15332031 12.46655273 C-36.68678074 12.70864344 -38.22064695 12.94817598 -39.75488281 13.18530273 C-40.64852539 13.32452148 -41.54216797 13.46374023 -42.46289062 13.60717773 C-43.35588867 13.72577148 -44.24888672 13.84436523 -45.16894531 13.96655273 C-46.3786499 14.13767578 -46.3786499 14.13767578 -47.61279297 14.31225586 C-49.75488281 14.18530273 -49.75488281 14.18530273 -51.56103516 12.86694336 C-52.75488281 11.18530273 -52.75488281 11.18530273 -52.44238281 8.49780273 C-52.21550781 7.73467773 -51.98863281 6.97155273 -51.75488281 6.18530273 C-34.59747011 1.11913757 -17.78272874 -0.00159859 0 0 Z " fill="#A99DA9" transform="translate(326.7548828125,217.814697265625)"/>
<path d="M0 0 C0.73523895 0.00077545 1.47047791 0.0015509 2.22799683 0.00234985 C3.3801619 -0.00591324 3.3801619 -0.00591324 4.55560303 -0.01434326 C7.07288515 -0.0261188 9.5896195 -0.01967796 12.10690308 -0.0093689 C12.96109833 -0.00821075 13.81529358 -0.00705261 14.69537354 -0.00585938 C25.85414768 0.02411446 36.88307466 0.37996839 47.98190308 1.6156311 C49.04529907 1.73317749 50.10869507 1.85072388 51.20431519 1.97183228 C57.32009064 2.74663909 62.91129771 4.09680488 68.66940308 6.3031311 C69.29440308 8.6156311 69.29440308 8.6156311 69.66940308 11.3031311 C69.00940308 12.2931311 68.34940308 13.2831311 67.66940308 14.3031311 C60.36413443 13.91811001 53.7003194 13.38636557 46.66940308 11.3031311 C39.35434266 10.30033805 31.96992521 10.20504544 24.59909058 10.0921936 C23.70447113 10.07783264 22.80985168 10.06347168 21.88812256 10.04867554 C18.15152267 9.99103692 14.41508734 9.93614081 10.67819214 9.90176392 C7.92228612 9.87432785 5.16718861 9.82854825 2.41159058 9.7796936 C1.56273285 9.77644073 0.71387512 9.77318787 -0.16070557 9.76983643 C-2.53030396 9.71963501 -2.53030396 9.71963501 -6.33059692 9.3031311 C-8.33059692 6.3031311 -8.33059692 6.3031311 -8.08059692 4.2406311 C-6.43605588 -0.00776659 -4.19200112 0.0584022 0 0 Z " fill="#A99DA9" transform="translate(169.33059692382813,217.69686889648438)"/>
<path d="M0 0 C0.26421753 0.5869162 0.52843506 1.1738324 0.80065918 1.77853394 C2.04657387 4.08626594 3.37084155 5.6619628 5.18945312 7.54345703 C5.83773071 8.21740509 6.4860083 8.89135315 7.15393066 9.58572388 C7.85594604 10.30251312 8.55796143 11.01930237 9.28125 11.7578125 C10.0093689 12.50207489 10.73748779 13.24633728 11.4876709 14.01315308 C13.03138907 15.58450978 14.57822471 17.15280902 16.12792969 18.71826172 C17.70406778 20.31743518 19.27123614 21.92550107 20.82910156 23.54248047 C23.0853147 25.88429389 25.36711711 28.19821966 27.65625 30.5078125 C28.34207153 31.22865021 29.02789307 31.94948792 29.73449707 32.69216919 C34.7518808 37.66596329 38.97399294 39.35420232 46 40 C44.63016497 43.16115776 44.0109362 43.9927092 41 46 C34.432693 47.00179259 34.432693 47.00179259 31.08703613 44.66238403 C30.46083374 44.08302094 29.83463135 43.50365784 29.18945312 42.90673828 C28.14797119 41.95145233 28.14797119 41.95145233 27.08544922 40.97686768 C26.39725098 40.32450134 25.70905273 39.67213501 25 39 C24.38527832 38.42127136 23.77055664 37.84254272 23.13720703 37.24627686 C19.23460173 33.52543129 15.40861527 29.72502486 11.57910156 25.92919922 C10.18398562 24.55079321 8.78350675 23.17779568 7.37792969 21.81005859 C5.33353537 19.82021308 3.30588857 17.81460681 1.28125 15.8046875 C0.65013306 15.19623993 0.01901611 14.58779236 -0.63122559 13.96090698 C-4.85955108 9.71161617 -4.85955108 9.71161617 -5.54882812 6.21923828 C-4.7366199 2.93499773 -2.72303755 1.83805034 0 0 Z " fill="#A65346" transform="translate(401,336)"/>
<path d="M0 0 C-1.30693833 1.35921586 -2.64946454 2.68409365 -4 4 C-4.48815186 4.51401367 -4.97630371 5.02802734 -5.47924805 5.55761719 C-10.28127152 10.2344443 -14.24875017 10.9645121 -20.8125 11.25 C-22.59791703 11.37390192 -24.38308437 11.50146021 -26.16796875 11.6328125 C-27.01020996 11.68985352 -27.85245117 11.74689453 -28.72021484 11.80566406 C-31.41482198 12.03536071 -33.99237361 12.51198014 -36.625 13.125 C-41.34953391 14.18423714 -46.17946571 14.63037756 -51 14 C-51.66 13.34 -52.32 12.68 -53 12 C-52.67028521 8.70285207 -52.3773161 7.3773161 -50 5 C-47.05380801 4.40898857 -44.15857885 3.91906047 -41.1875 3.5 C-39.44266904 3.24375697 -37.6978774 2.98724609 -35.953125 2.73046875 C-35.10041016 2.60720215 -34.24769531 2.48393555 -33.36914062 2.35693359 C-31.40198556 2.06056295 -29.44188499 1.71780806 -27.484375 1.36328125 C-18.31094121 -0.29499332 -9.2853542 -0.18758291 0 0 Z " fill="#AA9FAA" transform="translate(327,242)"/>
<path d="M0 0 C0.99 0.66 1.98 1.32 3 2 C3.35302734 4.9934082 3.35302734 4.9934082 3.3359375 8.80078125 C3.34845514 10.18424944 3.36149249 11.567713 3.375 12.95117188 C3.37892325 15.13029459 3.37502385 17.30895853 3.36035156 19.48803711 C3.35174925 21.59297548 3.37351895 23.69601018 3.3984375 25.80078125 C3.39336182 27.69050659 3.39336182 27.69050659 3.38818359 29.6184082 C3.69625205 33.17517728 3.69625205 33.17517728 6.50708008 35.46826172 C9.28502409 38.28946232 9.5687097 39.70380602 9.56648254 43.59785461 C9.54067612 44.2938829 9.51486969 44.98991119 9.48828125 45.70703125 C9.47766914 46.79512337 9.47766914 46.79512337 9.46684265 47.90519714 C9.43898406 50.20870703 9.37627191 52.50973251 9.3125 54.8125 C9.28740563 56.37952203 9.26459444 57.9465824 9.24414062 59.51367188 C9.18918681 63.34339656 9.10298226 67.17127797 9 71 C5.125 70.125 5.125 70.125 4 69 C3.91453646 66.70574915 3.89182204 64.40912176 3.89453125 62.11328125 C3.88106611 60.68553185 3.86604131 59.25779646 3.84960938 57.83007812 C3.8268418 55.57608852 3.812438 53.3236685 3.82495117 51.06958008 C4.28241335 41.31468825 4.28241335 41.31468825 0.13671875 32.98046875 C-2.80451242 30.73306293 -2.80451242 30.73306293 -6 31 C-6 23.08 -6 15.16 -6 7 C-4.02 6.34 -2.04 5.68 0 5 C0 3.35 0 1.7 0 0 Z " fill="#FBDA4F" transform="translate(338,80)"/>
<path d="M0 0 C1.21236328 0.01353516 1.21236328 0.01353516 2.44921875 0.02734375 C3.37154297 0.04474609 3.37154297 0.04474609 4.3125 0.0625 C3.82671457 3.18540635 3.3138988 6.05830359 2.3125 9.0625 C-5.5188994 11.94386393 -15.34670393 13.62179536 -23.6875 13.0625 C-25.5625 11.73046875 -25.5625 11.73046875 -26.6875 10.0625 C-26.5625 7.5 -26.5625 7.5 -25.6875 5.0625 C-22.19526825 2.7343455 -19.24218107 2.44408412 -15.1875 2 C-10.04197564 1.40703957 -5.15573982 -0.07472087 0 0 Z " fill="#AB9FAA" transform="translate(300.6875,267.9375)"/>
<path d="M0 0 C0.66 0.33 1.32 0.66 2 1 C2 10.9 2 20.8 2 31 C-0.475 30.01 -0.475 30.01 -3 29 C-3.99 29.66 -4.98 30.32 -6 31 C-6 23.08 -6 15.16 -6 7 C-4.02 6.34 -2.04 5.68 0 5 C0 3.35 0 1.7 0 0 Z " fill="#F69402" transform="translate(338,80)"/>
<path d="M0 0 C0.66 0.66 1.32 1.32 2 2 C1.35546875 1.84015625 0.7109375 1.6803125 0.046875 1.515625 C-9.51882929 -0.10318649 -21.23071907 -0.52112733 -30 4 C-30.82757813 4.41378906 -31.65515625 4.82757813 -32.5078125 5.25390625 C-42.88144202 10.93617794 -48.66134614 19.08056914 -53 30 C-54.06150946 34.62290511 -54.12196383 39.15448694 -54.0625 43.875 C-54.05573242 44.90753906 -54.05573242 44.90753906 -54.04882812 45.9609375 C-54.03716336 47.64066335 -54.01923271 49.32034375 -54 51 C-57.96143976 44.80430821 -56.79142082 34.81493267 -55.34765625 27.85546875 C-51.51292081 16.35126244 -44.47605563 8.02998427 -34 2 C-23.35980174 -3.10383494 -11.18811451 -3.87280887 0 0 Z " fill="#EDE9EA" transform="translate(371,249)"/>
<path d="M0 0 C0 0.66 0 1.32 0 2 C-0.79664063 2.37511719 -1.59328125 2.75023437 -2.4140625 3.13671875 C-14.10496932 8.78305696 -21.43771872 14.96553964 -26.296875 27.2890625 C-28.30892943 33.51476716 -29.55776537 39.47703922 -30 46 C-30.33 46 -30.66 46 -31 46 C-31.78854097 33.1730669 -30.02255437 23.09584054 -21.66015625 12.80859375 C-15.80686733 6.43195193 -9.0518916 0 0 0 Z " fill="#F29F8F" transform="translate(344,247)"/>
<path d="M0 0 C0.66 0 1.32 0 2 0 C2.55483024 12.67915137 2.99998459 23.50707177 -3 35 C-4.91383987 38.72646705 -6.38790672 41.83776571 -7 46 C-9 44 -9 44 -9.4375 41.5 C-9.00729246 38.05833964 -8.28955607 36.3764424 -6.6875 33.375 C-1.11377599 22.76439792 -0.43212315 11.74182915 0 0 Z " fill="#F39E8E" transform="translate(409,278)"/>
<path d="M0 0 C1.875 1.5 1.875 1.5 3 3 C1.88625 3.061875 0.7725 3.12375 -0.375 3.1875 C-5.05169168 3.74603537 -8.69247368 5.62513492 -12.80078125 7.84375 C-16.04586807 9.54987025 -18.57405556 10.12173679 -22.1875 10.0625 C-24.0746875 10.0315625 -24.0746875 10.0315625 -26 10 C-25 8 -25 8 -22.5234375 7.0703125 C-21.48445313 6.75835937 -20.44546875 6.44640625 -19.375 6.125 C-15.6807586 4.96070117 -12.39726304 3.82832923 -9.125 1.75 C-5.68332801 -0.17733631 -3.8761704 -0.61666347 0 0 Z " fill="#F39F8F" transform="translate(390,332)"/>
<path d="M0 0 C0.58523438 0.13277344 1.17046875 0.26554687 1.7734375 0.40234375 C8.78921533 1.84552928 15.66222881 2.3586236 22.80419922 2.57006836 C26.64445514 2.71687476 29.73664894 2.84183716 33 5 C21.39756216 7.65754163 11.01660061 5.75033212 0 2 C0 1.34 0 0.68 0 0 Z " fill="#F4AA9C" transform="translate(335,338)"/>
<path d="M0 0 C-0.57889381 3.28754511 -1.54828411 4.93672495 -3.9375 7.25 C-4.46214844 7.77078125 -4.98679687 8.2915625 -5.52734375 8.828125 C-7 10 -7 10 -9 10 C-8.42110619 6.71245489 -7.45171589 5.06327505 -5.0625 2.75 C-4.53785156 2.22921875 -4.01320313 1.7084375 -3.47265625 1.171875 C-2 0 -2 0 0 0 Z " fill="#FBDC41" transform="translate(335,141)"/>
<path d="M0 0 C3.92552386 3.92552386 3.74212404 5.58460482 4 11 C3.34 11.66 2.68 12.32 2 13 C1.34 8.71 0.68 4.42 0 0 Z " fill="#F5A899" transform="translate(406,267)"/>
</svg>
