<svg version="1.1" id="Layer_1" xmlns="http://www.w3.org/2000/svg" xmlns:xlink="http://www.w3.org/1999/xlink" x="0px" y="0px"
	 width="100%" viewBox="0 0 429 328" enable-background="new 0 0 429 328" xml:space="preserve">
<path fill="#FFFFFF" opacity="1.000000" stroke="none" 
	d="
M260.000000,329.000000 
	C173.333344,329.000000 87.166695,329.000000 1.000035,329.000000 
	C1.000023,219.666702 1.000023,110.333405 1.000012,1.000079 
	C143.999939,1.000052 286.999878,1.000052 429.999878,1.000026 
	C429.999908,110.333252 429.999908,219.666504 429.999939,328.999878 
	C373.500000,329.000000 317.000000,329.000000 260.000000,329.000000 
M95.014656,102.472969 
	C95.014656,102.472969 94.886818,102.057945 95.565521,101.789429 
	C106.680862,99.058334 113.670067,87.184525 111.089256,75.544373 
	C108.707603,64.802490 100.583130,58.690331 87.251320,59.013660 
	C85.250404,59.740158 83.076050,60.174927 81.278526,61.243557 
	C73.422409,65.914070 69.457672,73.257492 70.243912,82.059891 
	C71.162476,92.343903 77.038811,99.470345 87.251160,102.604668 
	C87.251160,102.604668 87.093384,103.026611 86.306030,102.954567 
	C77.886841,104.495888 70.452713,111.032173 70.103378,119.570236 
	C69.322609,138.652908 69.578285,157.777985 69.268242,177.823639 
	C68.418205,190.265259 69.870613,202.253479 75.351250,213.687073 
	C79.584274,222.517960 82.913330,231.680222 83.704987,241.630142 
	C84.387642,250.210007 85.525360,258.753662 86.322128,268.078766 
	C86.874840,273.005554 87.451111,277.929871 87.973434,282.859894 
	C88.463890,287.489258 90.662895,290.163086 95.646751,290.083618 
	C103.434364,289.959381 111.223930,289.958710 119.887245,290.024963 
	C121.043083,290.032074 122.201424,289.992767 123.354294,290.054901 
	C126.932205,290.247681 129.514252,288.980804 130.307068,285.237061 
	C131.117142,281.411865 129.445984,278.841827 125.979286,277.357483 
	C124.011635,276.514984 122.033112,275.626587 119.973801,275.084229 
	C115.736763,273.968384 113.079689,271.427979 112.221161,266.214264 
	C112.190231,236.434357 112.159302,206.654449 112.165619,176.463425 
	C112.165619,176.463425 112.068207,176.062302 112.215576,175.122055 
	C112.297531,165.753601 112.379486,156.385132 113.184509,147.150558 
	C117.080894,147.753403 120.963600,148.744080 124.876373,148.881973 
	C134.322937,149.214905 143.783539,149.149445 153.522156,150.017639 
	C161.130432,178.631668 168.680206,207.261566 176.425369,235.838501 
	C177.333649,239.189713 177.206116,241.085251 173.946365,243.175507 
	C168.536331,246.644608 165.535141,251.934677 164.912781,258.538208 
	C163.593704,272.534424 175.665741,283.390625 189.531677,282.403015 
	C192.856262,288.769196 198.172913,291.810577 205.283310,291.531403 
	C212.133163,291.262451 216.247055,286.797577 220.726852,281.838928 
	C231.886810,281.761261 243.046768,281.683594 254.773209,282.005035 
	C255.521255,283.097900 256.211639,284.235870 257.026581,285.276367 
	C262.813293,292.664551 273.344940,293.742828 280.467987,287.700653 
	C287.499603,281.735931 288.048981,270.848541 281.654694,264.182678 
	C275.102966,257.352692 264.729767,257.324127 258.169525,264.186432 
	C256.695587,265.728210 255.450256,267.488525 253.186798,268.848358 
	C242.090012,268.949127 230.993240,269.049866 219.352509,268.745972 
	C216.682724,266.103119 214.423248,262.723785 211.262207,260.962769 
	C203.423111,256.595581 196.059158,259.286285 188.252411,268.378479 
	C187.752777,268.386810 187.250412,268.433105 186.753906,268.397583 
	C181.230896,268.002869 177.856461,264.833252 178.025558,260.214813 
	C178.188446,255.765289 181.590988,252.854080 186.871887,252.676865 
	C188.203125,252.632187 189.537018,252.664566 190.869690,252.664536 
	C222.187576,252.663986 253.505966,252.575150 284.822906,252.748230 
	C290.245300,252.778183 293.296082,250.785538 295.586853,245.868637 
	C305.988647,223.542267 316.715698,201.367538 327.300842,179.126389 
	C330.905090,171.553238 328.175262,167.294022 319.659576,167.252335 
	C308.831818,167.199326 298.003662,167.238403 287.175659,167.238358 
	C250.527069,167.238220 213.878265,167.180115 177.230240,167.322815 
	C173.299316,167.338120 171.129059,166.592438 170.387085,162.309265 
	C169.510254,157.247803 167.874451,152.317825 166.798416,146.505844 
	C167.173752,144.347458 167.549088,142.189056 167.900803,139.303223 
	C166.988434,135.032471 163.826813,133.366074 159.979294,133.080246 
	C148.988739,132.263733 137.988022,131.379227 126.977272,131.121765 
	C121.054710,130.983261 116.524536,128.826141 112.630951,123.962708 
	C111.224144,111.815659 105.430687,104.819908 95.014656,102.472969 
M309.855713,56.954723 
	C309.816956,52.965912 309.904022,48.971149 309.715698,44.989410 
	C309.164948,33.343952 300.547272,23.864571 289.815887,22.957771 
	C277.712128,21.935005 267.414948,29.169333 265.421112,40.865623 
	C264.481750,46.376106 264.968658,52.129715 263.962982,57.825546 
	C255.830704,57.957874 254.909195,58.923344 253.988525,67.203445 
	C253.460342,71.953468 252.581131,76.664474 251.420746,80.766769 
	C249.289154,75.448524 246.690094,74.447250 241.645844,76.529778 
	C241.645844,76.529778 241.309814,76.246040 241.189713,75.490463 
	C241.148163,71.165947 241.161530,66.840080 241.054565,62.517181 
	C240.757156,50.498287 231.623840,41.108189 219.626511,40.426685 
	C208.533386,39.796547 198.365479,48.312183 196.877045,59.897617 
	C196.223557,64.984016 196.362488,70.172218 195.307297,75.243240 
	C188.002106,75.347778 187.004669,76.126938 185.815399,83.122833 
	C185.260925,86.384483 184.914200,89.682030 184.496567,92.966270 
	C182.594040,107.927811 180.699753,122.890388 178.257156,138.458374 
	C178.107224,140.962845 177.957291,143.467316 177.351807,146.584106 
	C176.639267,153.642502 178.188843,156.012207 183.893082,156.019257 
	C206.269135,156.046921 228.645294,155.986053 251.864044,156.036240 
	C259.515747,155.985825 261.036743,154.212296 260.070374,146.570038 
	C259.721252,143.809326 259.474243,141.035721 260.093781,138.243179 
	C279.725525,138.171204 299.357239,138.099228 319.615387,138.333725 
	C327.634552,138.547592 329.734802,136.381927 328.703308,128.699585 
	C325.914490,107.928391 323.094147,87.161331 320.229156,66.400520 
	C319.103882,58.246605 318.580994,57.878674 309.855713,56.954723 
z"/>
<path fill="#9E867E" opacity="1.000000" stroke="none" 
	d="
M166.567657,147.330841 
	C167.874451,152.317825 169.510254,157.247803 170.387085,162.309265 
	C171.129059,166.592438 173.299316,167.338120 177.230240,167.322815 
	C213.878265,167.180115 250.527069,167.238220 287.175659,167.238358 
	C298.003662,167.238403 308.831818,167.199326 319.659576,167.252335 
	C328.175262,167.294022 330.905090,171.553238 327.300842,179.126389 
	C316.715698,201.367538 305.988647,223.542267 295.586853,245.868637 
	C293.296082,250.785538 290.245300,252.778183 284.822906,252.748230 
	C253.505966,252.575150 222.187576,252.663986 190.869690,252.664536 
	C189.537018,252.664566 188.203125,252.632187 186.871887,252.676865 
	C181.590988,252.854080 178.188446,255.765289 178.025558,260.214813 
	C177.856461,264.833252 181.230896,268.002869 186.753906,268.397583 
	C187.250412,268.433105 187.752777,268.386810 188.655106,268.697144 
	C189.054840,273.317627 189.051895,277.619446 189.048935,281.921234 
	C175.665741,283.390625 163.593704,272.534424 164.912781,258.538208 
	C165.535141,251.934677 168.536331,246.644608 173.946365,243.175507 
	C177.206116,241.085251 177.333649,239.189713 176.425369,235.838501 
	C168.680206,207.261566 161.130432,178.631668 153.779892,149.381638 
	C158.214310,148.274033 162.390976,147.802429 166.567657,147.330841 
M285.763519,185.237396 
	C284.001068,191.947311 282.238586,198.657242 280.290375,206.074310 
	C286.672791,206.074310 292.292664,206.128952 297.909027,206.014023 
	C298.729797,205.997238 299.943848,205.375168 300.283173,204.690063 
	C304.080048,197.024048 307.740906,189.290665 311.795685,180.829895 
	C303.689423,180.829895 296.710327,180.646317 289.757568,180.992111 
	C288.441986,181.057556 287.230988,183.225449 285.763519,185.237396 
M180.973740,201.554031 
	C181.486206,203.057678 181.998672,204.561325 182.413864,205.779556 
	C188.861908,205.779556 194.782684,205.779556 201.137360,205.779556 
	C199.632629,197.321823 198.195236,189.242645 196.759293,181.171616 
	C189.574402,181.171616 182.869370,181.171616 175.574921,181.171616 
	C177.388260,188.005951 179.079208,194.379013 180.973740,201.554031 
M259.808411,180.861328 
	C259.251282,181.150146 258.241272,181.389465 258.203430,181.735077 
	C257.332367,189.701233 256.567017,197.678970 255.739746,206.084290 
	C260.997101,206.084290 265.299957,206.275635 269.565796,205.962769 
	C270.779480,205.873779 272.588837,204.528824 272.926880,203.400757 
	C275.104614,196.134216 276.949707,188.768021 279.065308,180.829285 
	C272.625519,180.829285 266.687683,180.829285 259.808411,180.861328 
M249.747574,188.136993 
	C249.747574,185.871918 249.747574,183.606827 249.747574,181.140854 
	C243.130020,181.140854 236.756287,181.140854 229.873672,181.140854 
	C230.569397,189.518250 231.235565,197.539658 231.914856,205.719177 
	C237.525223,205.719177 242.717361,205.719177 248.193863,205.719177 
	C248.681198,199.930725 249.139557,194.486206 249.747574,188.136993 
M204.046463,239.174973 
	C206.267151,239.325562 206.858505,238.513550 206.403946,236.214279 
	C205.115601,229.697571 204.181747,223.111008 202.914291,216.589661 
	C202.718536,215.582550 201.533722,214.029068 200.750031,213.994232 
	C195.525909,213.761978 190.286484,213.873749 184.378159,213.873749 
	C185.739700,219.078720 186.818237,223.404327 188.005142,227.699997 
	C191.178543,239.185379 191.197021,239.180267 204.046463,239.174973 
M209.627228,180.822983 
	C208.174759,180.914322 206.722275,181.005646 204.583511,181.140137 
	C206.040009,189.589890 207.430283,197.655411 208.812134,205.672134 
	C214.148636,205.672134 219.013748,205.672134 224.298050,205.672134 
	C223.540924,197.202332 222.824738,189.190521 222.076706,180.822586 
	C217.841614,180.822586 214.217346,180.822586 209.627228,180.822983 
M285.078156,236.879257 
	C288.586548,229.479187 292.094910,222.079132 295.999054,213.844345 
	C290.073944,213.844345 285.303833,213.761581 280.541412,213.915497 
	C279.609711,213.945602 278.095764,214.716751 277.886108,215.444489 
	C275.676727,223.112961 273.677704,230.842041 271.220642,240.053940 
	C276.688843,239.070969 280.714294,238.347351 285.078156,236.879257 
M211.022018,218.603836 
	C212.008392,224.309402 212.880203,230.039032 214.069046,235.702103 
	C214.335861,236.973099 215.603867,238.875320 216.596329,238.998962 
	C219.928207,239.414047 223.343857,239.156693 227.004425,239.156693 
	C226.244675,230.235397 225.562119,222.220596 224.871979,214.116638 
	C219.759598,214.116638 215.193710,214.116638 210.368164,214.116638 
	C210.583603,215.546844 210.751038,216.658386 211.022018,218.603836 
M245.562042,238.046783 
	C246.178116,230.187622 246.794189,222.328461 247.428879,214.231903 
	C242.167297,214.231903 237.655670,214.231903 232.638138,214.231903 
	C233.088135,219.925903 233.540329,225.180435 233.911224,230.440704 
	C234.614212,240.410477 233.334625,239.143417 243.583618,239.127365 
	C244.060394,239.126617 244.536789,238.895279 245.562042,238.046783 
M254.024765,227.561005 
	C253.768677,231.293823 253.512573,235.026642 253.227493,239.182129 
	C255.707596,239.182129 257.701416,239.372955 259.637238,239.120071 
	C261.109924,238.927689 263.522186,238.478119 263.782288,237.618362 
	C266.104462,229.942276 268.041199,222.149597 270.120331,214.281982 
	C264.653412,214.281982 259.942230,214.281982 255.217926,214.281982 
	C254.802917,218.694214 254.429596,222.663239 254.024765,227.561005 
z"/>
<path fill="#86CAFE" opacity="1.000000" stroke="none" 
	d="
M178.802505,137.852600 
	C180.699753,122.890388 182.594040,107.927811 184.496567,92.966270 
	C184.914200,89.682030 185.260925,86.384483 185.815399,83.122833 
	C187.004669,76.126938 188.002106,75.347778 195.780457,75.702049 
	C196.332443,79.320404 196.031403,82.557091 196.650757,85.606873 
	C196.959274,87.126045 198.953583,88.302872 200.185333,89.634567 
	C201.457153,88.169716 203.509232,86.858665 203.834763,85.207260 
	C204.468491,81.992332 204.134567,78.586670 204.653992,75.227432 
	C214.442596,75.230484 223.778610,75.266121 233.185623,75.734085 
	C233.337524,79.321877 233.025574,82.559914 233.664246,85.598122 
	C233.986115,87.129333 236.031982,88.298141 237.298279,89.630829 
	C238.553238,88.158417 240.519653,86.849724 240.904541,85.177101 
	C241.561935,82.320267 241.227615,79.235229 241.309814,76.246040 
	C241.309814,76.246040 241.645844,76.529778 241.937943,76.883514 
	C243.146179,80.017555 244.502228,82.735550 244.906311,85.588387 
	C247.337387,102.751808 249.783020,119.920090 251.712128,137.144043 
	C252.406311,143.342056 254.991730,149.842117 251.021423,155.958069 
	C228.645294,155.986053 206.269135,156.046921 183.893082,156.019257 
	C178.188843,156.012207 176.639267,153.642502 178.064850,146.288605 
	C179.775238,145.996658 180.772583,146.003464 181.769928,146.003281 
	C191.577240,146.001511 201.389648,146.155991 211.186707,145.837677 
	C212.780167,145.785934 214.305588,143.640030 215.862457,142.462082 
	C214.476212,141.013550 213.270645,139.287247 211.634460,138.222977 
	C210.687073,137.606750 209.046478,138.038116 207.717651,138.029373 
	C198.079300,137.965958 188.440887,137.910553 178.802505,137.852600 
M220.055969,142.406525 
	C220.527634,143.248962 220.926758,144.754501 221.483932,144.815460 
	C223.550858,145.041626 225.833282,145.214676 227.683655,144.499390 
	C228.362259,144.237061 228.599091,140.239883 228.116196,140.025940 
	C226.294601,139.218979 224.081345,139.022644 222.042511,139.129272 
	C221.338058,139.166107 220.714630,140.752747 220.055969,142.406525 
z"/>
<path fill="#FCDB35" opacity="1.000000" stroke="none" 
	d="
M318.988983,138.027252 
	C299.357239,138.099228 279.725525,138.171204 259.536987,137.820908 
	C258.648346,134.277512 258.316559,131.156387 258.454163,128.027924 
	C265.588806,128.018097 272.254089,127.993416 278.919128,128.023956 
	C281.592560,128.036209 284.127411,127.960342 283.985565,124.262405 
	C283.854706,120.850487 281.376678,120.953262 278.968414,120.952225 
	C271.636749,120.949066 264.305115,120.936569 256.828552,120.546440 
	C255.075760,107.241135 253.467865,94.317093 251.859955,81.393051 
	C252.581131,76.664474 253.460342,71.953468 253.988525,67.203445 
	C254.909195,58.923344 255.830704,57.957874 264.444031,58.272926 
	C264.948029,61.687466 264.534302,64.751671 265.163849,67.584007 
	C265.520142,69.187004 267.589447,70.409256 268.887207,71.802994 
	C269.959839,70.412170 271.698425,69.138031 271.966797,67.606285 
	C272.529175,64.396416 272.317688,61.050953 272.853271,57.796913 
	C282.810577,57.829056 292.338623,57.825455 301.911072,58.290550 
	C301.972443,61.556652 301.584076,64.439926 302.151947,67.120628 
	C302.517181,68.844704 304.288452,70.270935 305.429474,71.830666 
	C306.898438,70.342789 309.142395,69.079140 309.653107,67.314018 
	C310.402679,64.723137 309.913025,61.773712 310.281769,59.148388 
	C311.734680,63.349316 313.310028,67.313759 313.900787,71.419853 
	C316.381775,88.663582 318.829193,105.921585 320.694000,123.238434 
	C321.213196,128.059784 324.298737,133.684418 318.988983,138.027252 
M297.742188,125.260834 
	C297.603729,120.456245 294.168732,120.452225 291.060730,121.311249 
	C289.895752,121.633224 288.261505,124.754112 288.714630,125.632622 
	C290.414764,128.928909 293.442139,128.617279 296.378906,127.039062 
	C296.791290,126.817436 297.056488,126.321976 297.742188,125.260834 
z"/>
<path fill="#F29A89" opacity="1.000000" stroke="none" 
	d="
M86.461884,267.313324 
	C85.525360,258.753662 84.387642,250.210007 83.704987,241.630142 
	C82.913330,231.680222 79.584274,222.517960 75.351250,213.687073 
	C69.870613,202.253479 68.418205,190.265259 69.767136,177.336685 
	C81.170860,176.911484 92.075684,176.973251 102.987793,177.500763 
	C103.016968,207.686890 103.038857,237.407272 103.021408,267.305481 
	C102.982071,267.483337 102.897491,267.839020 102.486557,267.823181 
	C96.871040,267.642639 91.666458,267.477997 86.461884,267.313324 
z"/>
<path fill="#87CAFE" opacity="1.000000" stroke="none" 
	d="
M102.980507,177.035019 
	C92.075684,176.973251 81.170860,176.911484 69.838913,176.867767 
	C69.578285,157.777985 69.322609,138.652908 70.103378,119.570236 
	C70.452713,111.032173 77.886841,104.495888 87.015015,103.112030 
	C94.774513,106.484200 100.524765,110.858749 101.524902,119.076309 
	C99.378250,118.136047 97.651680,117.109978 95.798744,116.426506 
	C89.903625,114.252060 85.354164,116.798889 83.687210,123.198807 
	C82.850868,127.869476 85.338699,130.674255 88.688820,132.763794 
	C93.736282,135.912033 98.940552,138.808853 103.767647,142.119919 
	C103.457130,153.450958 103.457130,164.474640 103.457130,176.062302 
	C106.491554,176.062302 109.279884,176.062302 112.068207,176.062302 
	C112.068207,176.062302 112.165619,176.463425 111.683968,176.677734 
	C108.461716,176.939713 105.721107,176.987366 102.980507,177.035019 
z"/>
<path fill="#E5D6D2" opacity="1.000000" stroke="none" 
	d="
M83.921898,122.949661 
	C85.354164,116.798889 89.903625,114.252060 95.798744,116.426506 
	C97.651680,117.109978 99.378250,118.136047 101.726051,119.345726 
	C105.731789,121.364258 109.174141,123.042366 112.616493,124.720474 
	C116.524536,128.826141 121.054710,130.983261 126.977272,131.121765 
	C137.988022,131.379227 148.988739,132.263733 159.979294,133.080246 
	C163.826813,133.366074 166.988434,135.032471 167.551422,139.700439 
	C163.450958,141.065781 159.735443,142.653748 155.941269,142.871552 
	C148.303238,143.309998 140.591309,142.564819 132.966583,143.106445 
	C121.990974,143.886093 111.958313,142.132629 102.872688,135.505432 
	C96.756866,131.044449 90.252464,127.116219 83.921898,122.949661 
z"/>
<path fill="#E6D6D1" opacity="1.000000" stroke="none" 
	d="
M87.440529,102.196365 
	C77.038811,99.470345 71.162476,92.343903 70.243912,82.059891 
	C69.457672,73.257492 73.422409,65.914070 81.278526,61.243557 
	C83.076050,60.174927 85.250404,59.740158 87.783417,59.319172 
	C88.964630,60.122654 89.547554,60.765373 90.272751,61.096943 
	C101.708649,66.325615 104.234917,83.983093 97.896683,92.036140 
	C95.005592,95.709427 91.375305,98.800911 87.922562,102.201744 
	C87.764847,102.247208 87.440529,102.196365 87.440529,102.196365 
z"/>
<path fill="#EA8373" opacity="1.000000" stroke="none" 
	d="
M204.201416,75.260002 
	C204.134567,78.586670 204.468491,81.992332 203.834763,85.207260 
	C203.509232,86.858665 201.457153,88.169716 200.185333,89.634567 
	C198.953583,88.302872 196.959274,87.126045 196.650757,85.606873 
	C196.031403,82.557091 196.332443,79.320404 196.197617,75.737526 
	C196.362488,70.172218 196.223557,64.984016 196.877045,59.897617 
	C198.365479,48.312183 208.533386,39.796547 219.626511,40.426685 
	C231.623840,41.108189 240.757156,50.498287 241.054565,62.517181 
	C241.161530,66.840080 241.148163,71.165947 241.249756,75.868256 
	C241.227615,79.235229 241.561935,82.320267 240.904541,85.177101 
	C240.519653,86.849724 238.553238,88.158417 237.298279,89.630829 
	C236.031982,88.298141 233.986115,87.129333 233.664246,85.598122 
	C233.025574,82.559914 233.337524,79.321877 233.379181,75.349167 
	C233.410461,69.914452 233.718948,65.246048 233.138535,60.690899 
	C232.151901,52.947773 225.433380,47.626785 217.922440,48.047386 
	C210.423553,48.467308 204.358261,54.612263 204.073730,62.355095 
	C203.915894,66.649368 204.146103,70.957901 204.201416,75.260002 
z"/>
<path fill="#EB8573" opacity="1.000000" stroke="none" 
	d="
M309.951355,58.977055 
	C309.913025,61.773712 310.402679,64.723137 309.653107,67.314018 
	C309.142395,69.079140 306.898438,70.342789 305.429474,71.830666 
	C304.288452,70.270935 302.517181,68.844704 302.151947,67.120628 
	C301.584076,64.439926 301.972443,61.556652 301.954224,57.837265 
	C301.969452,52.923367 302.075775,48.929359 301.983093,44.939980 
	C301.807526,37.382324 295.744507,30.906477 288.322144,30.210106 
	C281.353271,29.556280 274.076050,34.934078 272.948730,42.366486 
	C272.183960,47.408577 272.558807,52.623528 272.423981,57.761169 
	C272.317688,61.050953 272.529175,64.396416 271.966797,67.606285 
	C271.698425,69.138031 269.959839,70.412170 268.887207,71.802994 
	C267.589447,70.409256 265.520142,69.187004 265.163849,67.584007 
	C264.534302,64.751671 264.948029,61.687466 264.867188,58.246735 
	C264.968658,52.129715 264.481750,46.376106 265.421112,40.865623 
	C267.414948,29.169333 277.712128,21.935005 289.815887,22.957771 
	C300.547272,23.864571 309.164948,33.343952 309.715698,44.989410 
	C309.904022,48.971149 309.816956,52.965912 309.898560,57.687576 
	C309.944672,58.605972 309.947998,58.791512 309.951355,58.977055 
z"/>
<path fill="#EA806F" opacity="1.000000" stroke="none" 
	d="
M102.987793,177.500763 
	C105.721107,176.987366 108.461716,176.939713 111.665344,176.883301 
	C112.159302,206.654449 112.190231,236.434357 111.692322,266.683167 
	C108.462570,267.143890 105.761650,267.135773 103.060738,267.127655 
	C103.038857,237.407272 103.016968,207.686890 102.987793,177.500763 
z"/>
<path fill="#4A3A35" opacity="1.000000" stroke="none" 
	d="
M254.099701,269.148224 
	C255.450256,267.488525 256.695587,265.728210 258.169525,264.186432 
	C264.729767,257.324127 275.102966,257.352692 281.654694,264.182678 
	C288.048981,270.848541 287.499603,281.735931 280.467987,287.700653 
	C273.344940,293.742828 262.813293,292.664551 257.026581,285.276367 
	C256.211639,284.235870 255.521255,283.097900 254.485870,281.368652 
	C254.165588,276.870911 254.132645,273.009552 254.099701,269.148224 
M271.888763,281.656952 
	C275.628479,280.215851 277.173767,277.215942 275.893768,273.720978 
	C275.182861,271.779816 272.865692,269.718475 270.852020,269.115631 
	C267.077087,267.985504 263.524353,271.113953 263.203186,275.021973 
	C262.897308,278.744690 266.336578,281.723785 271.888763,281.656952 
z"/>
<path fill="#493934" opacity="1.000000" stroke="none" 
	d="
M189.290314,282.162109 
	C189.051895,277.619446 189.054840,273.317627 189.084503,268.613037 
	C196.059158,259.286285 203.423111,256.595581 211.262207,260.962769 
	C214.423248,262.723785 216.682724,266.103119 219.605331,269.351349 
	C219.834946,273.835663 219.811752,277.714600 219.788544,281.593536 
	C216.247055,286.797577 212.133163,291.262451 205.283310,291.531403 
	C198.172913,291.810577 192.856262,288.769196 189.290314,282.162109 
M210.908783,274.597351 
	C209.903168,269.957886 206.812180,268.134460 202.433319,269.103058 
	C198.815262,269.903351 196.940048,272.965729 198.101395,276.302551 
	C198.875137,278.525696 201.359894,281.261993 203.483612,281.671967 
	C207.689285,282.483856 210.124115,279.500244 210.908783,274.597351 
z"/>
<path fill="#856E67" opacity="1.000000" stroke="none" 
	d="
M86.392006,267.696045 
	C91.666458,267.477997 96.871040,267.642639 102.547920,268.195984 
	C104.751015,270.423157 106.210953,272.695770 108.282448,273.988098 
	C110.764542,275.536530 113.790726,276.194977 116.541367,277.335114 
	C120.533943,278.990051 121.851166,282.117950 120.369949,286.198303 
	C119.920906,287.435333 119.465286,288.669952 119.012680,289.905670 
	C111.223930,289.958710 103.434364,289.959381 95.646751,290.083618 
	C90.662895,290.163086 88.463890,287.489258 87.973434,282.859894 
	C87.451111,277.929871 86.874840,273.005554 86.392006,267.696045 
z"/>
<path fill="#53B3F9" opacity="1.000000" stroke="none" 
	d="
M251.640350,81.079910 
	C253.467865,94.317093 255.075760,107.241135 256.781433,120.955696 
	C257.247742,123.842567 257.616241,125.938911 257.984741,128.035263 
	C258.316559,131.156387 258.648346,134.277512 259.080383,137.833313 
	C259.474243,141.035721 259.721252,143.809326 260.070374,146.570038 
	C261.036743,154.212296 259.515747,155.985825 251.442734,155.997162 
	C254.991730,149.842117 252.406311,143.342056 251.712128,137.144043 
	C249.783020,119.920090 247.337387,102.751808 244.906311,85.588387 
	C244.502228,82.735550 243.146179,80.017555 241.856979,77.087967 
	C246.690094,74.447250 249.289154,75.448524 251.640350,81.079910 
z"/>
<path fill="#FDC933" opacity="1.000000" stroke="none" 
	d="
M310.281769,59.148388 
	C309.947998,58.791512 309.944672,58.605972 309.963806,58.142780 
	C318.580994,57.878674 319.103882,58.246605 320.229156,66.400520 
	C323.094147,87.161331 325.914490,107.928391 328.703308,128.699585 
	C329.734802,136.381927 327.634552,138.547592 319.302185,138.180481 
	C324.298737,133.684418 321.213196,128.059784 320.694000,123.238434 
	C318.829193,105.921585 316.381775,88.663582 313.900787,71.419853 
	C313.310028,67.313759 311.734680,63.349316 310.281769,59.148388 
z"/>
<path fill="#DBC8C4" opacity="1.000000" stroke="none" 
	d="
M83.687210,123.198807 
	C90.252464,127.116219 96.756866,131.044449 102.872688,135.505432 
	C111.958313,142.132629 121.990974,143.886093 132.966583,143.106445 
	C140.591309,142.564819 148.303238,143.309998 155.941269,142.871552 
	C159.735443,142.653748 163.450958,141.065781 167.563248,140.064163 
	C167.549088,142.189056 167.173752,144.347458 166.683044,146.918335 
	C162.390976,147.802429 158.214310,148.274033 153.638062,148.995117 
	C143.783539,149.149445 134.322937,149.214905 124.876373,148.881973 
	C120.963600,148.744080 117.080894,147.753403 112.572189,146.819931 
	C109.332634,144.930389 106.705399,143.371475 104.078163,141.812546 
	C98.940552,138.808853 93.736282,135.912033 88.688820,132.763794 
	C85.338699,130.674255 82.850868,127.869476 83.687210,123.198807 
z"/>
<path fill="#9B837B" opacity="1.000000" stroke="none" 
	d="
M220.257690,281.716248 
	C219.811752,277.714600 219.834946,273.835663 219.877304,269.553680 
	C230.993240,269.049866 242.090012,268.949127 253.643250,268.998291 
	C254.132645,273.009552 254.165588,276.870911 254.202621,281.169067 
	C243.046768,281.683594 231.886810,281.761261 220.257690,281.716248 
z"/>
<path fill="#DAC7C1" opacity="1.000000" stroke="none" 
	d="
M88.080284,102.156281 
	C91.375305,98.800911 95.005592,95.709427 97.896683,92.036140 
	C104.234917,83.983093 101.708649,66.325615 90.272751,61.096943 
	C89.547554,60.765373 88.964630,60.122654 88.166054,59.322731 
	C100.583130,58.690331 108.707603,64.802490 111.089256,75.544373 
	C113.670067,87.184525 106.680862,99.058334 94.975510,101.992317 
	C94.232925,102.278786 94.080353,102.362373 93.517136,102.357132 
	C91.431084,102.230965 89.755684,102.193619 88.080284,102.156281 
z"/>
<path fill="#52B3FC" opacity="1.000000" stroke="none" 
	d="
M178.529831,138.155487 
	C188.440887,137.910553 198.079300,137.965958 207.717651,138.029373 
	C209.046478,138.038116 210.687073,137.606750 211.634460,138.222977 
	C213.270645,139.287247 214.476212,141.013550 215.862457,142.462082 
	C214.305588,143.640030 212.780167,145.785934 211.186707,145.837677 
	C201.389648,146.155991 191.577240,146.001511 181.769928,146.003281 
	C180.772583,146.003464 179.775238,145.996658 178.292633,145.982452 
	C177.957291,143.467316 178.107224,140.962845 178.529831,138.155487 
z"/>
<path fill="#4FB1FC" opacity="1.000000" stroke="none" 
	d="
M103.767647,142.119919 
	C106.705399,143.371475 109.332634,144.930389 112.210648,146.752991 
	C112.379486,156.385132 112.297531,165.753601 112.141891,175.592178 
	C109.279884,176.062302 106.491554,176.062302 103.457130,176.062302 
	C103.457130,164.474640 103.457130,153.450958 103.767647,142.119919 
z"/>
<path fill="#755E58" opacity="1.000000" stroke="none" 
	d="
M119.449966,289.965332 
	C119.465286,288.669952 119.920906,287.435333 120.369949,286.198303 
	C121.851166,282.117950 120.533943,278.990051 116.541367,277.335114 
	C113.790726,276.194977 110.764542,275.536530 108.282448,273.988098 
	C106.210953,272.695770 104.751015,270.423157 102.958862,268.211853 
	C102.897491,267.839020 102.982071,267.483337 103.021408,267.305481 
	C105.761650,267.135773 108.462570,267.143890 111.619217,267.157715 
	C113.079689,271.427979 115.736763,273.968384 119.973801,275.084229 
	C122.033112,275.626587 124.011635,276.514984 125.979286,277.357483 
	C129.445984,278.841827 131.117142,281.411865 130.307068,285.237061 
	C129.514252,288.980804 126.932205,290.247681 123.354294,290.054901 
	C122.201424,289.992767 121.043083,290.032074 119.449966,289.965332 
z"/>
<path fill="#54B3FC" opacity="1.000000" stroke="none" 
	d="
M87.922562,102.201744 
	C89.755684,102.193619 91.431084,102.230965 93.691498,102.503021 
	C94.276505,102.737724 94.709068,102.898506 94.709068,102.898506 
	C94.709068,102.898506 95.170227,102.878410 95.170227,102.878410 
	C105.430687,104.819908 111.224144,111.815659 112.623718,124.341591 
	C109.174141,123.042366 105.731789,121.364258 102.088303,119.416733 
	C100.524765,110.858749 94.774513,106.484200 87.408691,103.148048 
	C87.093384,103.026611 87.251160,102.604668 87.345840,102.400513 
	C87.440529,102.196365 87.764847,102.247208 87.922562,102.201744 
z"/>
<path fill="#87CAFE" opacity="1.000000" stroke="none" 
	d="
M95.092438,102.675690 
	C95.170227,102.878410 94.709068,102.898506 94.709068,102.898506 
	C94.709068,102.898506 94.276505,102.737724 94.102142,102.591843 
	C94.080353,102.362373 94.232925,102.278786 94.636154,102.126572 
	C94.886818,102.057945 95.014656,102.472969 95.092438,102.675690 
z"/>
<path fill="#FEFDFD" opacity="1.000000" stroke="none" 
	d="
M285.867615,184.830322 
	C287.230988,183.225449 288.441986,181.057556 289.757568,180.992111 
	C296.710327,180.646317 303.689423,180.829895 311.795685,180.829895 
	C307.740906,189.290665 304.080048,197.024048 300.283173,204.690063 
	C299.943848,205.375168 298.729797,205.997238 297.909027,206.014023 
	C292.292664,206.128952 286.672791,206.074310 280.290375,206.074310 
	C282.238586,198.657242 284.001068,191.947311 285.867615,184.830322 
z"/>
<path fill="#FEFDFD" opacity="1.000000" stroke="none" 
	d="
M180.871948,201.153061 
	C179.079208,194.379013 177.388260,188.005951 175.574921,181.171616 
	C182.869370,181.171616 189.574402,181.171616 196.759293,181.171616 
	C198.195236,189.242645 199.632629,197.321823 201.137360,205.779556 
	C194.782684,205.779556 188.861908,205.779556 182.413864,205.779556 
	C181.998672,204.561325 181.486206,203.057678 180.871948,201.153061 
z"/>
<path fill="#FDFDFD" opacity="1.000000" stroke="none" 
	d="
M260.279114,180.845306 
	C266.687683,180.829285 272.625519,180.829285 279.065308,180.829285 
	C276.949707,188.768021 275.104614,196.134216 272.926880,203.400757 
	C272.588837,204.528824 270.779480,205.873779 269.565796,205.962769 
	C265.299957,206.275635 260.997101,206.084290 255.739746,206.084290 
	C256.567017,197.678970 257.332367,189.701233 258.203430,181.735077 
	C258.241272,181.389465 259.251282,181.150146 260.279114,180.845306 
z"/>
<path fill="#FDFDFD" opacity="1.000000" stroke="none" 
	d="
M249.672760,188.589325 
	C249.139557,194.486206 248.681198,199.930725 248.193863,205.719177 
	C242.717361,205.719177 237.525223,205.719177 231.914856,205.719177 
	C231.235565,197.539658 230.569397,189.518250 229.873672,181.140854 
	C236.756287,181.140854 243.130020,181.140854 249.747574,181.140854 
	C249.747574,183.606827 249.747574,185.871918 249.672760,188.589325 
z"/>
<path fill="#FDFDFD" opacity="1.000000" stroke="none" 
	d="
M203.593140,239.176971 
	C191.197021,239.180267 191.178543,239.185379 188.005142,227.699997 
	C186.818237,223.404327 185.739700,219.078720 184.378159,213.873749 
	C190.286484,213.873749 195.525909,213.761978 200.750031,213.994232 
	C201.533722,214.029068 202.718536,215.582550 202.914291,216.589661 
	C204.181747,223.111008 205.115601,229.697571 206.403946,236.214279 
	C206.858505,238.513550 206.267151,239.325562 203.593140,239.176971 
z"/>
<path fill="#FDFDFD" opacity="1.000000" stroke="none" 
	d="
M210.110168,180.822784 
	C214.217346,180.822586 217.841614,180.822586 222.076706,180.822586 
	C222.824738,189.190521 223.540924,197.202332 224.298050,205.672134 
	C219.013748,205.672134 214.148636,205.672134 208.812134,205.672134 
	C207.430283,197.655411 206.040009,189.589890 204.583511,181.140137 
	C206.722275,181.005646 208.174759,180.914322 210.110168,180.822784 
z"/>
<path fill="#FDFCFC" opacity="1.000000" stroke="none" 
	d="
M284.908936,237.251495 
	C280.714294,238.347351 276.688843,239.070969 271.220642,240.053940 
	C273.677704,230.842041 275.676727,223.112961 277.886108,215.444489 
	C278.095764,214.716751 279.609711,213.945602 280.541412,213.915497 
	C285.303833,213.761581 290.073944,213.844345 295.999054,213.844345 
	C292.094910,222.079132 288.586548,229.479187 284.908936,237.251495 
z"/>
<path fill="#FDFCFC" opacity="1.000000" stroke="none" 
	d="
M210.970245,218.186890 
	C210.751038,216.658386 210.583603,215.546844 210.368164,214.116638 
	C215.193710,214.116638 219.759598,214.116638 224.871979,214.116638 
	C225.562119,222.220596 226.244675,230.235397 227.004425,239.156693 
	C223.343857,239.156693 219.928207,239.414047 216.596329,238.998962 
	C215.603867,238.875320 214.335861,236.973099 214.069046,235.702103 
	C212.880203,230.039032 212.008392,224.309402 210.970245,218.186890 
z"/>
<path fill="#FDFCFC" opacity="1.000000" stroke="none" 
	d="
M245.287704,238.409058 
	C244.536789,238.895279 244.060394,239.126617 243.583618,239.127365 
	C233.334625,239.143417 234.614212,240.410477 233.911224,230.440704 
	C233.540329,225.180435 233.088135,219.925903 232.638138,214.231903 
	C237.655670,214.231903 242.167297,214.231903 247.428879,214.231903 
	C246.794189,222.328461 246.178116,230.187622 245.287704,238.409058 
z"/>
<path fill="#FDFCFC" opacity="1.000000" stroke="none" 
	d="
M254.040527,227.096619 
	C254.429596,222.663239 254.802917,218.694214 255.217926,214.281982 
	C259.942230,214.281982 264.653412,214.281982 270.120331,214.281982 
	C268.041199,222.149597 266.104462,229.942276 263.782288,237.618362 
	C263.522186,238.478119 261.109924,238.927689 259.637238,239.120071 
	C257.701416,239.372955 255.707596,239.182129 253.227493,239.182129 
	C253.512573,235.026642 253.768677,231.293823 254.040527,227.096619 
z"/>
<path fill="#FFFCFC" opacity="1.000000" stroke="none" 
	d="
M204.653992,75.227432 
	C204.146103,70.957901 203.915894,66.649368 204.073730,62.355095 
	C204.358261,54.612263 210.423553,48.467308 217.922440,48.047386 
	C225.433380,47.626785 232.151901,52.947773 233.138535,60.690899 
	C233.718948,65.246048 233.410461,69.914452 233.308197,74.916840 
	C223.778610,75.266121 214.442596,75.230484 204.653992,75.227432 
z"/>
<path fill="#52B3FC" opacity="1.000000" stroke="none" 
	d="
M220.055084,142.018982 
	C220.714630,140.752747 221.338058,139.166107 222.042511,139.129272 
	C224.081345,139.022644 226.294601,139.218979 228.116196,140.025940 
	C228.599091,140.239883 228.362259,144.237061 227.683655,144.499390 
	C225.833282,145.214676 223.550858,145.041626 221.483932,144.815460 
	C220.926758,144.754501 220.527634,143.248962 220.055084,142.018982 
z"/>
<path fill="#FFFDFB" opacity="1.000000" stroke="none" 
	d="
M272.853271,57.796913 
	C272.558807,52.623528 272.183960,47.408577 272.948730,42.366486 
	C274.076050,34.934078 281.353271,29.556280 288.322144,30.210106 
	C295.744507,30.906477 301.807526,37.382324 301.983093,44.939980 
	C302.075775,48.929359 301.969452,52.923367 301.909821,57.368568 
	C292.338623,57.825455 282.810577,57.829056 272.853271,57.796913 
z"/>
<path fill="#F8AC02" opacity="1.000000" stroke="none" 
	d="
M258.454163,128.027924 
	C257.616241,125.938911 257.247742,123.842567 256.926331,121.336960 
	C264.305115,120.936569 271.636749,120.949066 278.968414,120.952225 
	C281.376678,120.953262 283.854706,120.850487 283.985565,124.262405 
	C284.127411,127.960342 281.592560,128.036209 278.919128,128.023956 
	C272.254089,127.993416 265.588806,128.018097 258.454163,128.027924 
z"/>
<path fill="#F9AF03" opacity="1.000000" stroke="none" 
	d="
M297.565979,125.607056 
	C297.056488,126.321976 296.791290,126.817436 296.378906,127.039062 
	C293.442139,128.617279 290.414764,128.928909 288.714630,125.632622 
	C288.261505,124.754112 289.895752,121.633224 291.060730,121.311249 
	C294.168732,120.452225 297.603729,120.456245 297.565979,125.607056 
z"/>
<path fill="#977F77" opacity="1.000000" stroke="none" 
	d="
M271.505859,281.769531 
	C266.336578,281.723785 262.897308,278.744690 263.203186,275.021973 
	C263.524353,271.113953 267.077087,267.985504 270.852020,269.115631 
	C272.865692,269.718475 275.182861,271.779816 275.893768,273.720978 
	C277.173767,277.215942 275.628479,280.215851 271.505859,281.769531 
z"/>
<path fill="#987F78" opacity="1.000000" stroke="none" 
	d="
M210.913498,274.985901 
	C210.124115,279.500244 207.689285,282.483856 203.483612,281.671967 
	C201.359894,281.261993 198.875137,278.525696 198.101395,276.302551 
	C196.940048,272.965729 198.815262,269.903351 202.433319,269.103058 
	C206.812180,268.134460 209.903168,269.957886 210.913498,274.985901 
z"/>
</svg>