<svg version="1.1" id="Layer_1" xmlns="http://www.w3.org/2000/svg" xmlns:xlink="http://www.w3.org/1999/xlink" x="0px" y="0px"
	 width="100%" viewBox="0 0 417 263" enable-background="new 0 0 417 263" xml:space="preserve">
<path fill="#FFFFFF" opacity="1.000000" stroke="none" 
	d="
M304.000000,264.000000 
	C202.666702,264.000000 101.833405,264.000000 1.000081,264.000000 
	C1.000054,176.333405 1.000054,88.666801 1.000027,1.000152 
	C139.999878,1.000101 278.999756,1.000101 417.999725,1.000051 
	C417.999817,88.666512 417.999817,176.333023 417.999908,263.999756 
	C380.166656,264.000000 342.333344,264.000000 304.000000,264.000000 
M279.992828,214.163895 
	C279.991882,179.776199 279.990967,145.388489 280.458527,110.519989 
	C289.720978,104.573242 289.939270,95.462105 289.072784,85.240700 
	C280.971191,71.105186 272.899841,56.952183 264.748474,42.845428 
	C262.473053,38.907612 259.257660,36.068863 254.413818,36.044647 
	C247.262222,36.008888 240.109787,36.144005 232.041092,36.044491 
	C223.230087,36.112125 214.419067,36.179756 204.761902,36.059372 
	C196.120895,36.114586 187.479904,36.169804 177.935638,36.058380 
	C169.020035,36.109596 160.104446,36.160812 150.242401,36.035225 
	C147.087418,36.018387 143.932404,35.984955 140.777435,35.987473 
	C123.480644,36.001270 124.108208,34.323021 114.762299,50.969830 
	C108.201035,62.656677 101.607147,74.325211 94.860435,86.918839 
	C94.145950,96.366714 95.205818,105.134842 104.036324,111.866249 
	C104.045723,146.263947 104.055130,180.661652 103.342888,215.367737 
	C93.518356,217.449753 92.498245,218.970230 94.604546,229.172424 
	C96.422340,229.172424 98.370964,229.172394 100.319580,229.172394 
	C147.070969,229.172394 193.822372,229.183929 240.573761,229.164932 
	C253.381683,229.159729 266.189575,229.063049 279.917419,229.126083 
	C283.362823,229.126083 286.808258,229.126083 290.133362,229.126083 
	C292.009277,218.603882 289.899445,215.847046 279.992828,214.163895 
z"/>
<path fill="#FFCEC0" opacity="1.000000" stroke="none" 
	d="
M104.064537,215.059341 
	C104.055130,180.661652 104.045723,146.263947 104.425079,111.463028 
	C116.550446,116.151749 126.280502,112.785233 133.971680,101.329231 
	C138.388550,108.885071 144.374435,113.252609 153.096939,113.260201 
	C162.229706,113.268143 168.365768,108.578842 172.896042,101.294907 
	C182.832855,117.622040 202.327728,117.415421 211.333527,101.200989 
	C211.458496,101.203812 211.706619,101.169930 211.896912,101.455887 
	C222.050125,117.747818 241.273117,117.347557 250.564316,101.181442 
	C253.997528,107.722679 259.222260,111.423157 265.980591,113.614594 
	C266.002991,147.745941 266.013245,181.418518 265.553436,215.088440 
	C211.410431,215.076965 157.737488,215.068161 104.064537,215.059341 
M213.919205,199.088165 
	C216.552353,199.044907 219.185516,199.001648 222.777191,199.017914 
	C231.938934,199.026642 241.100662,199.044357 250.262405,199.041382 
	C258.190063,199.038788 259.955658,197.317261 259.967438,189.394897 
	C259.994659,171.071289 259.981689,152.747589 259.973633,134.423935 
	C259.970093,126.363815 257.642426,124.019279 249.626450,124.016907 
	C223.140427,124.009071 196.654419,124.013680 170.168396,124.013885 
	C157.674988,124.013985 145.181351,123.969597 132.688293,124.036652 
	C127.307877,124.065529 124.136894,126.705673 124.105797,131.644745 
	C123.979935,151.633347 123.974510,171.623779 124.115204,191.612213 
	C124.148567,196.352188 127.351372,199.019424 132.239594,199.028229 
	C142.233414,199.046234 152.227386,198.981049 163.113861,199.052994 
	C179.757965,199.016449 196.402069,198.979919 213.919205,199.088165 
z"/>
<path fill="#F29988" opacity="1.000000" stroke="none" 
	d="
M103.703712,215.213531 
	C157.737488,215.068161 211.410431,215.076965 265.810974,215.346405 
	C269.691559,215.704681 272.844482,215.802338 276.142517,216.241364 
	C279.915558,220.130371 278.868256,224.697647 278.997498,229.008347 
	C266.189575,229.063049 253.381683,229.159729 240.573761,229.164932 
	C193.822372,229.183929 147.070969,229.172394 100.319580,229.172394 
	C98.370964,229.172394 96.422340,229.172424 94.604546,229.172424 
	C92.498245,218.970230 93.518356,217.449753 103.703712,215.213531 
z"/>
<path fill="#FF5571" opacity="1.000000" stroke="none" 
	d="
M232.957703,36.206352 
	C240.109787,36.144005 247.262222,36.008888 254.413818,36.044647 
	C259.257660,36.068863 262.473053,38.907612 264.748474,42.845428 
	C272.899841,56.952183 280.971191,71.105186 288.589722,85.585938 
	C275.574677,85.969887 263.042694,86.008591 250.367340,85.676117 
	C244.468506,68.938736 238.713104,52.572544 232.957703,36.206352 
z"/>
<path fill="#FF5571" opacity="1.000000" stroke="none" 
	d="
M95.027832,86.001923 
	C101.607147,74.325211 108.201035,62.656677 114.762299,50.969830 
	C124.108208,34.323021 123.480644,36.001270 140.777435,35.987473 
	C143.932404,35.984955 147.087418,36.018387 150.649597,36.490700 
	C145.266693,53.291637 139.476578,69.637108 133.243744,85.977859 
	C120.209961,85.982735 107.618896,85.992332 95.027832,86.001923 
z"/>
<path fill="#FCDA36" opacity="1.000000" stroke="none" 
	d="
M133.686478,85.982574 
	C139.476578,69.637108 145.266693,53.291637 151.122833,36.579102 
	C160.104446,36.160812 169.020035,36.109596 178.352234,36.528534 
	C178.514465,38.622913 178.220749,40.242096 178.011902,41.872147 
	C176.128677,56.570503 174.260330,71.270767 171.973297,85.963272 
	C159.038712,85.975517 146.518417,85.994965 133.918213,86.026199 
	C133.838287,86.037994 133.686478,85.982574 133.686478,85.982574 
z"/>
<path fill="#FCDA36" opacity="1.000000" stroke="none" 
	d="
M232.499390,36.125420 
	C238.713104,52.572544 244.468506,68.938736 250.266083,85.699905 
	C250.308228,86.094879 250.104523,86.076782 249.628387,86.033386 
	C236.743362,85.968155 224.334473,85.946320 211.752457,85.893036 
	C211.579330,85.861595 211.229111,85.827087 211.215744,85.809624 
	C211.202377,85.792160 211.173737,85.758492 211.179733,85.320663 
	C209.326508,68.671013 207.467285,52.459202 205.608063,36.247391 
	C214.419067,36.179756 223.230087,36.112125 232.499390,36.125420 
z"/>
<path fill="#FF5570" opacity="1.000000" stroke="none" 
	d="
M205.184998,36.153381 
	C207.467285,52.459202 209.326508,68.671013 210.699020,85.375938 
	C197.789703,85.927132 185.367096,85.985214 172.804596,86.030151 
	C172.664719,86.017014 172.387619,85.970467 172.387619,85.970467 
	C174.260330,71.270767 176.128677,56.570503 178.011902,41.872147 
	C178.220749,40.242096 178.514465,38.622913 178.803864,36.611855 
	C187.479904,36.169804 196.120895,36.114586 205.184998,36.153381 
z"/>
<path fill="#FCB1A1" opacity="1.000000" stroke="none" 
	d="
M275.997437,215.900009 
	C272.844482,215.802338 269.691559,215.704681 266.281067,215.349060 
	C266.013245,181.418518 266.002991,147.745941 266.355316,113.597046 
	C271.141907,112.414093 275.565979,111.707443 279.990021,111.000793 
	C279.990967,145.388489 279.991882,179.776199 279.733154,214.883331 
	C278.314789,215.701843 277.156128,215.800934 275.997437,215.900009 
z"/>
<path fill="#E80B42" opacity="1.000000" stroke="none" 
	d="
M280.224274,110.760391 
	C275.565979,111.707443 271.141907,112.414093 266.343140,113.138290 
	C259.222260,111.423157 253.997528,107.722679 250.537903,100.721863 
	C250.227631,95.376366 250.166077,90.726570 250.104523,86.076782 
	C250.104523,86.076782 250.308228,86.094879 250.409485,86.071091 
	C263.042694,86.008591 275.574677,85.969887 288.578491,85.947388 
	C289.939270,95.462105 289.720978,104.573242 280.224274,110.760391 
z"/>
<path fill="#E80B42" opacity="1.000000" stroke="none" 
	d="
M94.944138,86.460381 
	C107.618896,85.992332 120.209961,85.982735 133.243744,85.977859 
	C133.686478,85.982574 133.838287,86.037994 133.860748,86.488007 
	C133.853546,91.636292 133.823883,96.334564 133.794220,101.032845 
	C126.280502,112.785233 116.550446,116.151749 104.434311,110.989410 
	C95.205818,105.134842 94.145950,96.366714 94.944138,86.460381 
z"/>
<path fill="#EB8373" opacity="1.000000" stroke="none" 
	d="
M276.142517,216.241364 
	C277.156128,215.800934 278.314789,215.701843 279.718384,215.359009 
	C289.899445,215.847046 292.009277,218.603882 290.133362,229.126083 
	C286.808258,229.126083 283.362823,229.126083 279.457458,229.067215 
	C278.868256,224.697647 279.915558,220.130371 276.142517,216.241364 
z"/>
<path fill="#FFFFFF" opacity="1.000000" stroke="none" 
	d="
M162.221298,198.950119 
	C152.227386,198.981049 142.233414,199.046234 132.239594,199.028229 
	C127.351372,199.019424 124.148567,196.352188 124.115204,191.612213 
	C123.974510,171.623779 123.979935,151.633347 124.105797,131.644745 
	C124.136894,126.705673 127.307877,124.065529 132.688293,124.036652 
	C145.181351,123.969597 157.674988,124.013985 170.168396,124.013885 
	C196.654419,124.013680 223.140427,124.009071 249.626450,124.016907 
	C257.642426,124.019279 259.970093,126.363815 259.973633,134.423935 
	C259.981689,152.747589 259.994659,171.071289 259.967438,189.394897 
	C259.955658,197.317261 258.190063,199.038788 250.262405,199.041382 
	C241.100662,199.044357 231.938934,199.026642 222.311096,198.542664 
	C221.902512,180.830994 213.316147,170.182068 196.163452,165.684204 
	C198.818207,163.770309 201.733368,162.534134 203.596237,160.385574 
	C207.470123,155.917572 208.166428,150.516129 205.805618,145.048904 
	C203.244339,139.117508 198.251968,136.593384 191.658112,136.073257 
	C177.790787,139.106110 172.940552,150.503616 180.995300,160.736588 
	C182.733536,162.944901 185.639954,164.233734 187.635803,166.024063 
	C169.762878,171.183472 161.843964,181.570862 162.221298,198.950119 
z"/>
<path fill="#85CAFF" opacity="1.000000" stroke="none" 
	d="
M162.667572,199.001556 
	C161.843964,181.570862 169.762878,171.183472 187.980408,166.054230 
	C189.155502,166.060104 189.613510,166.113785 190.314545,166.412476 
	C204.038071,169.955505 214.702469,181.283035 213.046173,198.943375 
	C196.402069,198.979919 179.757965,199.016449 162.667572,199.001556 
z"/>
<path fill="#F9AB02" opacity="1.000000" stroke="none" 
	d="
M133.971680,101.329231 
	C133.823883,96.334564 133.853546,91.636292 133.940674,86.476212 
	C146.518417,85.994965 159.038712,85.975517 171.973297,85.963272 
	C172.387619,85.970467 172.664719,86.017014 172.762619,86.490219 
	C172.811966,91.638115 172.763412,96.312813 172.714874,100.987503 
	C168.365768,108.578842 162.229706,113.268143 153.096939,113.260201 
	C144.374435,113.252609 138.388550,108.885071 133.971680,101.329231 
z"/>
<path fill="#E80B42" opacity="1.000000" stroke="none" 
	d="
M172.896027,101.294907 
	C172.763412,96.312813 172.811966,91.638115 172.902496,86.503357 
	C185.367096,85.985214 197.789703,85.927132 210.693024,85.813766 
	C211.173737,85.758492 211.202377,85.792160 211.160889,86.289352 
	C211.149109,91.590424 211.178833,96.394295 211.208557,101.198166 
	C202.327728,117.415421 182.832855,117.622040 172.896027,101.294907 
z"/>
<path fill="#F9AC02" opacity="1.000000" stroke="none" 
	d="
M249.628387,86.033386 
	C250.166077,90.726570 250.227631,95.376366 250.315582,100.485733 
	C241.273117,117.347557 222.050125,117.747818 211.948853,100.978477 
	C211.848862,95.451561 211.887222,90.688019 211.925583,85.924484 
	C224.334473,85.946320 236.743362,85.968155 249.628387,86.033386 
z"/>
<path fill="#55B4FC" opacity="1.000000" stroke="none" 
	d="
M213.482697,199.015778 
	C214.702469,181.283035 204.038071,169.955505 190.549255,166.340240 
	C190.540939,166.022995 191.006805,165.867035 191.417297,165.917389 
	C193.200958,165.961426 194.574158,165.955093 195.947342,165.948776 
	C213.316147,170.182068 221.902512,180.830994 221.831848,198.512909 
	C219.185516,199.001648 216.552353,199.044907 213.482697,199.015778 
z"/>
<path fill="#FF5570" opacity="1.000000" stroke="none" 
	d="
M211.752457,85.893036 
	C211.887222,90.688019 211.848862,95.451561 211.758560,100.692520 
	C211.706619,101.169930 211.458496,101.203812 211.333527,101.200989 
	C211.178833,96.394295 211.149109,91.590424 211.174255,86.306824 
	C211.229111,85.827087 211.579330,85.861595 211.752457,85.893036 
z"/>
<path fill="#E6D6D1" opacity="1.000000" stroke="none" 
	d="
M191.006805,165.867035 
	C191.006805,165.867035 190.540939,166.022995 190.306229,166.095230 
	C189.613510,166.113785 189.155502,166.060104 188.352875,165.976257 
	C185.639954,164.233734 182.733536,162.944901 180.995300,160.736588 
	C172.940552,150.503616 177.790787,139.106110 191.681274,136.409210 
	C192.987732,137.941589 193.783234,139.207932 194.800888,140.259232 
	C202.042557,147.740402 201.850616,155.152527 194.223328,162.308014 
	C193.061096,163.398346 192.074585,164.676010 191.006805,165.867035 
z"/>
<path fill="#DAC7C1" opacity="1.000000" stroke="none" 
	d="
M191.417297,165.917389 
	C192.074585,164.676010 193.061096,163.398346 194.223328,162.308014 
	C201.850616,155.152527 202.042557,147.740402 194.800888,140.259232 
	C193.783234,139.207932 192.987732,137.941589 192.066254,136.438843 
	C198.251968,136.593384 203.244339,139.117508 205.805618,145.048904 
	C208.166428,150.516129 207.470123,155.917572 203.596237,160.385574 
	C201.733368,162.534134 198.818207,163.770309 196.163452,165.684204 
	C194.574158,165.955093 193.200958,165.961426 191.417297,165.917389 
z"/>
</svg>