<svg version="1.1" id="Layer_1" xmlns="http://www.w3.org/2000/svg" xmlns:xlink="http://www.w3.org/1999/xlink" x="0px" y="0px"
	 width="100%" viewBox="0 0 580 395" enable-background="new 0 0 580 395" xml:space="preserve">
<path fill="#FFFFFF" opacity="1.000000" stroke="none" 
	d="
M428.000000,396.000000 
	C285.333374,396.000000 143.166733,396.000000 1.000076,396.000000 
	C1.000051,264.333405 1.000051,132.666794 1.000025,1.000147 
	C194.333237,1.000098 387.666473,1.000098 580.999756,1.000049 
	C580.999878,132.666519 580.999878,264.333038 580.999939,395.999786 
	C530.166687,396.000000 479.333344,396.000000 428.000000,396.000000 
M464.147858,101.095238 
	C464.156219,93.263763 464.282440,85.429276 464.082916,77.603104 
	C464.037872,75.836327 462.858643,74.098465 461.645813,71.827850 
	C458.136047,70.773476 454.626312,69.719109 450.567719,68.202370 
	C434.364349,63.832272 417.941223,60.129768 402.024017,54.890362 
	C388.166229,50.328857 375.150116,50.125797 361.248505,54.829559 
	C345.084564,60.298813 328.372253,64.147240 311.083221,68.737709 
	C309.156830,69.204819 307.048950,69.330574 305.353394,70.231926 
	C303.540344,71.195717 302.116058,72.890869 300.522095,74.266792 
	C302.076691,75.503105 303.449799,77.338989 305.216766,77.873970 
	C313.749786,80.457451 322.388824,82.690849 331.102478,85.974388 
	C331.083893,92.988159 331.065308,100.001923 330.103607,107.006607 
	C279.984131,107.004868 229.864639,107.002968 179.745148,107.002312 
	C178.579636,107.002296 177.405396,106.926270 176.250092,107.038620 
	C170.192291,107.627724 167.013596,111.069679 167.013657,117.234947 
	C167.014191,171.183731 167.045120,225.132523 167.037613,279.870239 
	C167.449738,287.042236 170.541412,290.074646 177.607071,290.078888 
	C208.565811,290.097595 239.524612,290.067566 270.483215,290.129822 
	C272.938782,290.134766 275.393250,290.709686 277.871643,291.953278 
	C277.903900,299.636536 277.936157,307.319794 277.035309,314.978424 
	C270.535919,314.981201 264.036499,314.972229 257.537140,314.989594 
	C248.157974,315.014648 242.052475,320.677399 241.116257,330.940338 
	C240.814056,334.919586 243.773026,333.972839 245.894531,333.974976 
	C280.649414,334.010162 315.404297,334.003815 350.159210,333.986115 
	C351.599518,333.985382 353.039673,333.782715 354.388214,333.681061 
	C355.893463,322.838318 349.023865,315.206299 337.096436,314.995819 
	C330.785065,315.004852 324.473663,315.013916 318.211060,314.082977 
	C318.244751,306.424377 318.278442,298.765747 319.204803,290.995941 
	C321.203125,290.960724 323.201447,290.895233 325.199768,290.894806 
	C355.194244,290.888184 385.188751,290.906921 415.183228,290.881012 
	C425.759033,290.871887 428.981232,287.646454 428.981567,277.262695 
	C428.983246,228.438339 428.984863,179.613968 428.973389,130.789612 
	C428.972931,128.793808 428.840851,126.798042 429.212189,124.174652 
	C429.846680,122.693001 431.021759,121.214203 431.029572,119.729256 
	C431.089020,108.443115 430.920227,97.155777 431.354401,85.326172 
	C439.404816,83.200401 447.455200,81.074631 455.551422,79.829735 
	C455.529449,87.117508 455.507477,94.405289 455.151337,102.371223 
	C453.142365,105.278732 449.610107,108.084740 449.408386,111.112663 
	C448.788055,120.422279 449.442535,129.816833 449.362671,139.858261 
	C449.512756,143.155563 451.003510,142.407272 452.608856,140.878662 
	C454.732849,138.856201 456.778961,136.751999 459.587036,134.767059 
	C461.686401,136.219498 463.785767,137.671936 466.130768,139.720169 
	C467.214386,140.685135 468.298004,141.650116 469.381622,142.615082 
	C469.785645,142.405334 470.189636,142.195572 470.593658,141.985825 
	C470.593658,135.714951 470.308533,129.427795 470.665161,123.177269 
	C471.120209,115.201988 470.980286,107.601707 464.147858,101.095238 
z"/>
<path fill="#F0E3DF" opacity="1.000000" stroke="none" 
	d="
M167.067032,279.081299 
	C167.045120,225.132523 167.014191,171.183731 167.013657,117.234947 
	C167.013596,111.069679 170.192291,107.627724 176.250092,107.038620 
	C177.405396,106.926270 178.579636,107.002296 179.745148,107.002312 
	C229.864639,107.002968 279.984131,107.004868 330.605469,107.452911 
	C331.361511,110.936394 331.615692,113.973572 331.846008,117.433319 
	C331.954834,119.539650 332.087494,121.223404 331.733704,122.938629 
	C283.596222,122.981384 235.945099,123.038879 188.294373,122.921227 
	C184.231613,122.911201 182.894424,123.916824 182.908707,128.166061 
	C183.057144,172.317886 183.044846,216.470535 182.923386,260.622528 
	C182.912537,264.572571 183.712723,266.100281 188.081207,266.091858 
	C261.057220,265.951080 334.033508,265.980438 407.447021,265.981659 
	C409.469055,265.881073 411.053833,265.770721 413.008392,265.634613 
	C413.008392,220.694565 413.008392,176.273987 413.301697,131.660156 
	C416.730164,130.227173 419.865265,128.987411 423.007172,128.232101 
	C423.015564,176.716080 423.018341,224.715637 423.017670,272.715179 
	C423.017517,282.109924 420.166046,284.996643 410.892639,284.996826 
	C334.559967,284.998138 258.227203,284.940033 181.894897,285.107391 
	C175.825867,285.120697 170.801575,284.080933 167.067032,279.081299 
z"/>
<path fill="#909CD1" opacity="1.000000" stroke="none" 
	d="
M331.869873,117.010750 
	C331.615692,113.973572 331.361511,110.936394 331.077026,107.457451 
	C331.065308,100.001923 331.083893,92.988159 331.427917,85.513077 
	C344.886230,88.627884 358.098053,91.942970 371.120544,95.883759 
	C378.263245,98.045227 384.963074,98.039764 392.065460,95.829796 
	C400.930145,93.071503 410.012421,91.012527 419.001038,89.152237 
	C419.003845,98.783363 419.265747,107.926308 418.829376,117.035797 
	C418.718048,119.359894 416.921326,122.842415 415.001984,123.643364 
	C400.517639,129.687912 385.235077,131.357742 369.734558,129.648163 
	C356.290741,128.165436 343.749756,123.449562 331.869873,117.010750 
z"/>
<path fill="#5E699E" opacity="1.000000" stroke="none" 
	d="
M311.897919,68.699112 
	C328.372253,64.147240 345.084564,60.298813 361.248505,54.829559 
	C375.150116,50.125797 388.166229,50.328857 402.024017,54.890362 
	C417.941223,60.129768 434.364349,63.832272 450.635071,68.770126 
	C431.398315,74.569557 412.039459,79.610580 392.817688,85.129112 
	C385.390503,87.261444 378.276520,87.610512 370.861816,85.477173 
	C360.371155,82.458817 349.768494,79.831337 339.264099,76.858681 
	C330.105774,74.266937 321.017273,71.428528 311.897919,68.699112 
z"/>
<path fill="#DAC6C1" opacity="1.000000" stroke="none" 
	d="
M167.052322,279.475769 
	C170.801575,284.080933 175.825867,285.120697 181.894897,285.107391 
	C258.227203,284.940033 334.559967,284.998138 410.892639,284.996826 
	C420.166046,284.996643 423.017517,282.109924 423.017670,272.715179 
	C423.018341,224.715637 423.015564,176.716080 423.222351,127.999924 
	C425.210510,126.456299 426.990326,125.629280 428.770111,124.802261 
	C428.840851,126.798042 428.972931,128.793808 428.973389,130.789612 
	C428.984863,179.613968 428.983246,228.438339 428.981567,277.262695 
	C428.981232,287.646454 425.759033,290.871887 415.183228,290.881012 
	C385.188751,290.906921 355.194244,290.888184 325.199768,290.894806 
	C323.201447,290.895233 321.203125,290.960724 318.437653,290.792419 
	C315.073792,290.700897 312.477051,290.812958 309.419312,290.934448 
	C298.588257,290.969177 288.218231,290.994446 277.848206,291.019714 
	C275.393250,290.709686 272.938782,290.134766 270.483215,290.129822 
	C239.524612,290.067566 208.565811,290.097595 177.607071,290.078888 
	C170.541412,290.074646 167.449738,287.042236 167.052322,279.475769 
z"/>
<path fill="#404D77" opacity="1.000000" stroke="none" 
	d="
M311.490570,68.718414 
	C321.017273,71.428528 330.105774,74.266937 339.264099,76.858681 
	C349.768494,79.831337 360.371155,82.458817 370.861816,85.477173 
	C378.276520,87.610512 385.390503,87.261444 392.817688,85.129112 
	C412.039459,79.610580 431.398315,74.569557 450.909485,69.001312 
	C454.626312,69.719109 458.136047,70.773476 461.945984,72.466446 
	C462.758636,78.235718 457.730225,76.975250 455.505615,78.948868 
	C447.455200,81.074631 439.404816,83.200401 430.691223,85.592468 
	C426.352295,86.789711 422.676514,87.720665 419.000763,88.651611 
	C410.012421,91.012527 400.930145,93.071503 392.065460,95.829796 
	C384.963074,98.039764 378.263245,98.045227 371.120544,95.883759 
	C358.098053,91.942970 344.886230,88.627884 331.371826,85.050087 
	C322.388824,82.690849 313.749786,80.457451 305.216766,77.873970 
	C303.449799,77.338989 302.076691,75.503105 300.522095,74.266785 
	C302.116058,72.890869 303.540344,71.195717 305.353394,70.231926 
	C307.048950,69.330574 309.156830,69.204819 311.490570,68.718414 
z"/>
<path fill="#F0E3DF" opacity="1.000000" stroke="none" 
	d="
M318.162292,315.022949 
	C324.473663,315.013916 330.785065,315.004852 337.713623,315.313324 
	C343.400024,318.950317 348.776733,322.077057 347.543945,330.128235 
	C311.798096,330.128235 276.493164,330.128235 241.188232,330.128235 
	C242.052475,320.677399 248.157974,315.014648 257.537140,314.989594 
	C264.036499,314.972229 270.535919,314.981201 277.973511,314.974609 
	C289.297638,314.944427 299.683533,314.918060 310.510437,314.948669 
	C313.355042,315.011414 315.758667,315.017181 318.162292,315.022949 
z"/>
<path fill="#7B88C0" opacity="1.000000" stroke="none" 
	d="
M419.001038,89.152237 
	C422.676514,87.720665 426.352295,86.789711 430.425293,85.863785 
	C430.920227,97.155777 431.089020,108.443115 431.029572,119.729256 
	C431.021759,121.214203 429.846680,122.693001 428.991150,124.488457 
	C426.990326,125.629280 425.210510,126.456299 423.215576,127.515488 
	C419.865265,128.987411 416.730164,130.227173 412.935089,131.674484 
	C410.503235,132.440247 408.731323,132.998444 406.538025,133.605637 
	C394.353516,136.087189 382.554565,137.618958 370.499939,135.990250 
	C356.856934,134.146942 343.792786,130.744446 332.220184,122.907166 
	C332.087494,121.223404 331.954834,119.539650 331.846008,117.433319 
	C343.749756,123.449562 356.290741,128.165436 369.734558,129.648163 
	C385.235077,131.357742 400.517639,129.687912 415.001984,123.643364 
	C416.921326,122.842415 418.718048,119.359894 418.829376,117.035797 
	C419.265747,107.926308 419.003845,98.783363 419.001038,89.152237 
z"/>
<path fill="#C2A9A1" opacity="1.000000" stroke="none" 
	d="
M310.069458,314.891663 
	C299.683533,314.918060 289.297638,314.944427 278.440063,314.986938 
	C277.936157,307.319794 277.903900,299.636536 277.859924,291.486511 
	C288.218231,290.994446 298.588257,290.969177 309.452515,291.409790 
	C309.987671,299.547699 310.028564,307.219666 310.069458,314.891663 
z"/>
<path fill="#DBC8C3" opacity="1.000000" stroke="none" 
	d="
M241.152252,330.534302 
	C276.493164,330.128235 311.798096,330.128235 347.543945,330.128235 
	C348.776733,322.077057 343.400024,318.950317 338.184021,315.330139 
	C349.023865,315.206299 355.893463,322.838318 354.388214,333.681061 
	C353.039673,333.782715 351.599518,333.985382 350.159210,333.986115 
	C315.404297,334.003815 280.649414,334.010162 245.894531,333.974976 
	C243.773026,333.972839 240.814056,334.919586 241.152252,330.534302 
z"/>
<path fill="#FFEA89" opacity="1.000000" stroke="none" 
	d="
M449.601562,139.178375 
	C449.442535,129.816833 448.788055,120.422279 449.408386,111.112663 
	C449.610107,108.084740 453.142365,105.278732 455.556641,102.057434 
	C455.961945,101.743637 456.426178,101.864891 456.426178,101.864891 
	C456.426178,101.864891 456.902985,101.811272 457.258789,101.877045 
	C461.256134,104.677330 465.857086,106.857430 465.969757,112.203133 
	C466.158844,121.172295 465.935120,130.150162 465.885101,139.124359 
	C463.785767,137.671936 461.686401,136.219498 459.256470,134.400299 
	C457.997650,133.795944 456.681976,133.047134 456.206665,133.407303 
	C453.882050,135.168762 451.781403,137.225830 449.601562,139.178375 
z"/>
<path fill="#F69503" opacity="1.000000" stroke="none" 
	d="
M456.902985,101.811272 
	C456.902985,101.811272 456.426178,101.864891 456.426178,101.864891 
	C456.426178,101.864891 455.961945,101.743637 455.723694,101.718353 
	C455.507477,94.405289 455.529449,87.117508 455.528503,79.389297 
	C457.730225,76.975250 462.758636,78.235718 462.223877,72.726166 
	C462.858643,74.098465 464.037872,75.836327 464.082916,77.603104 
	C464.282440,85.429276 464.156219,93.263763 463.761108,101.437637 
	C461.208191,99.910255 459.045898,98.855530 456.902985,101.811272 
z"/>
<path fill="#FCDC3E" opacity="1.000000" stroke="none" 
	d="
M457.258789,101.877045 
	C459.045898,98.855530 461.208191,99.910255 463.704437,101.905411 
	C470.980286,107.601707 471.120209,115.201988 470.665161,123.177269 
	C470.308533,129.427795 470.593658,135.714951 470.593658,141.985825 
	C470.189636,142.195572 469.785645,142.405334 469.381622,142.615082 
	C468.298004,141.650116 467.214386,140.685135 466.007935,139.422272 
	C465.935120,130.150162 466.158844,121.172295 465.969757,112.203133 
	C465.857086,106.857430 461.256134,104.677330 457.258789,101.877045 
z"/>
<path fill="#9C837B" opacity="1.000000" stroke="none" 
	d="
M310.510437,314.948669 
	C310.028564,307.219666 309.987671,299.547699 309.913574,291.400330 
	C312.477051,290.812958 315.073792,290.700897 317.991333,290.848022 
	C318.278442,298.765747 318.244751,306.424377 318.186676,314.552979 
	C315.758667,315.017181 313.355042,315.011414 310.510437,314.948669 
z"/>
<path fill="#FCDE43" opacity="1.000000" stroke="none" 
	d="
M449.482117,139.518311 
	C451.781403,137.225830 453.882050,135.168762 456.206665,133.407303 
	C456.681976,133.047134 457.997650,133.795944 458.892212,134.358246 
	C456.778961,136.751999 454.732849,138.856201 452.608856,140.878662 
	C451.003510,142.407272 449.512756,143.155563 449.482117,139.518311 
z"/>
<path fill="#EDF6FF" opacity="1.000000" stroke="none" 
	d="
M331.733704,122.938629 
	C343.792786,130.744446 356.856934,134.146942 370.499939,135.990250 
	C382.554565,137.618958 394.353516,136.087189 406.548584,134.116608 
	C406.990295,178.376358 407.000031,222.174118 407.009766,265.971893 
	C334.033508,265.980438 261.057220,265.951080 188.081207,266.091858 
	C183.712723,266.100281 182.912537,264.572571 182.923386,260.622528 
	C183.044846,216.470535 183.057144,172.317886 182.908707,128.166061 
	C182.894424,123.916824 184.231613,122.911201 188.294373,122.921227 
	C235.945099,123.038879 283.596222,122.981384 331.733704,122.938629 
M354.525696,250.264343 
	C360.153870,249.900208 359.862610,245.729980 360.902374,241.843948 
	C370.034088,241.852554 379.165863,241.839722 388.297424,241.880981 
	C391.670105,241.896210 394.593750,240.841080 394.517548,237.106125 
	C394.445068,233.552750 391.550598,232.914658 388.373169,232.949722 
	C378.910522,233.054138 369.445923,232.980850 359.863342,232.159271 
	C359.672089,225.345917 359.018311,224.547409 353.120148,224.878494 
	C346.153931,224.886124 346.153931,224.886124 344.979919,232.979263 
	C299.981079,232.982101 254.982208,232.984528 209.983353,232.989548 
	C208.483704,232.989716 206.756180,232.550720 205.540924,233.145737 
	C203.949631,233.924881 201.814163,235.427444 201.664383,236.808731 
	C201.509338,238.238602 203.171402,240.256912 204.567078,241.331451 
	C205.563675,242.098724 207.433044,241.853592 208.913040,241.854141 
	C254.578537,241.870758 300.244049,241.861923 345.972900,242.724014 
	C346.112701,249.706680 346.793427,250.310547 354.525696,250.264343 
M296.851685,217.599716 
	C300.546478,216.703903 304.398987,216.212418 307.909149,214.843246 
	C324.293671,208.452332 334.027252,190.442749 330.622253,173.283585 
	C327.123260,155.650757 311.945679,142.745895 294.102020,142.785172 
	C279.294098,142.653275 268.115143,149.138046 260.936157,161.910812 
	C253.744553,174.706055 254.063492,187.806961 261.962708,200.175537 
	C269.816437,212.472946 281.289429,218.439377 296.851685,217.599716 
z"/>
<path fill="#D9ECFF" opacity="1.000000" stroke="none" 
	d="
M407.447021,265.981659 
	C407.000031,222.174118 406.990295,178.376358 406.969971,134.067627 
	C408.731323,132.998444 410.503235,132.440247 412.641785,131.867722 
	C413.008392,176.273987 413.008392,220.694565 413.008392,265.634613 
	C411.053833,265.770721 409.469055,265.881073 407.447021,265.981659 
z"/>
<path fill="#FF5572" opacity="1.000000" stroke="none" 
	d="
M296.074280,217.469391 
	C281.289429,218.439377 269.816437,212.472946 261.962708,200.175537 
	C254.063492,187.806961 253.744553,174.706055 260.936157,161.910812 
	C268.115143,149.138046 279.294098,142.653275 294.783112,143.161652 
	C297.820953,144.292969 300.230072,144.915482 302.525726,145.824554 
	C315.383789,150.916275 325.823120,165.700455 325.151855,181.866821 
	C324.636597,194.276337 314.849762,210.360016 302.029510,214.562790 
	C299.950256,215.244385 298.054718,216.486420 296.074280,217.469391 
M284.714752,197.999496 
	C293.394989,193.189255 302.149841,188.506546 310.714417,183.498535 
	C313.650574,181.781677 313.680939,178.626740 310.876678,176.980927 
	C302.036102,171.792450 292.931213,167.054276 283.752838,161.559525 
	C280.452942,159.665726 277.248810,160.451080 277.166443,163.615616 
	C276.883026,174.507446 276.957458,185.412994 277.182709,196.307404 
	C277.207550,197.509155 278.888611,199.234955 280.160858,199.672272 
	C281.141327,200.009293 282.685822,198.705490 284.714752,197.999496 
z"/>
<path fill="#AA9FAB" opacity="1.000000" stroke="none" 
	d="
M345.909546,241.856995 
	C300.244049,241.861923 254.578537,241.870758 208.913040,241.854141 
	C207.433044,241.853592 205.563675,242.098724 204.567078,241.331451 
	C203.171402,240.256912 201.509338,238.238602 201.664383,236.808731 
	C201.814163,235.427444 203.949631,233.924881 205.540924,233.145737 
	C206.756180,232.550720 208.483704,232.989716 209.983353,232.989548 
	C254.982208,232.984528 299.981079,232.982101 345.483643,233.417969 
	C345.961426,236.523453 345.935486,239.190216 345.909546,241.856995 
z"/>
<path fill="#F23A59" opacity="1.000000" stroke="none" 
	d="
M296.462982,217.534546 
	C298.054718,216.486420 299.950256,215.244385 302.029510,214.562790 
	C314.849762,210.360016 324.636597,194.276337 325.151855,181.866821 
	C325.823120,165.700455 315.383789,150.916275 302.525726,145.824554 
	C300.230072,144.915482 297.820953,144.292969 295.227905,143.263290 
	C311.945679,142.745895 327.123260,155.650757 330.622253,173.283585 
	C334.027252,190.442749 324.293671,208.452332 307.909149,214.843246 
	C304.398987,216.212418 300.546478,216.703903 296.462982,217.534546 
z"/>
<path fill="#AA9FAB" opacity="1.000000" stroke="none" 
	d="
M359.982086,232.976990 
	C369.445923,232.980850 378.910522,233.054138 388.373169,232.949722 
	C391.550598,232.914658 394.445068,233.552750 394.517548,237.106125 
	C394.593750,240.841080 391.670105,241.896210 388.297424,241.880981 
	C379.165863,241.839722 370.034088,241.852554 360.409821,241.394775 
	C359.938873,238.289413 359.960480,235.633209 359.982086,232.976990 
z"/>
<path fill="#86CAFF" opacity="1.000000" stroke="none" 
	d="
M345.941223,242.290497 
	C345.935486,239.190216 345.961426,236.523453 345.946228,233.407410 
	C346.153931,224.886124 346.153931,224.886124 353.738892,225.272491 
	C354.904846,231.614258 355.665924,237.554199 355.884125,243.514008 
	C355.961243,245.619904 354.712738,247.774323 354.069458,249.906601 
	C346.793427,250.310547 346.112701,249.706680 345.941223,242.290497 
z"/>
<path fill="#5FB6F9" opacity="1.000000" stroke="none" 
	d="
M354.297577,250.085480 
	C354.712738,247.774323 355.961243,245.619904 355.884125,243.514008 
	C355.665924,237.554199 354.904846,231.614258 354.172058,225.323944 
	C359.018311,224.547409 359.672089,225.345917 359.922729,232.568146 
	C359.960480,235.633209 359.938873,238.289413 359.939301,241.378067 
	C359.862610,245.729980 360.153870,249.900208 354.297577,250.085480 
z"/>
<path fill="#FFFCFC" opacity="1.000000" stroke="none" 
	d="
M283.928619,162.141830 
	C292.931213,167.054276 302.036102,171.792450 310.876678,176.980927 
	C313.680939,178.626740 313.650574,181.781677 310.714417,183.498535 
	C302.149841,188.506546 293.394989,193.189255 283.999084,197.884216 
	C282.466675,196.099640 280.994019,194.449646 280.944214,192.757736 
	C280.699432,184.445999 280.643890,176.115616 280.973572,167.809769 
	C281.049988,165.884399 282.896576,164.029282 283.928619,162.141830 
z"/>
<path fill="#F3415F" opacity="1.000000" stroke="none" 
	d="
M283.840729,161.850677 
	C282.896576,164.029282 281.049988,165.884399 280.973572,167.809769 
	C280.643890,176.115616 280.699432,184.445999 280.944214,192.757736 
	C280.994019,194.449646 282.466675,196.099640 283.631470,197.950104 
	C282.685822,198.705490 281.141327,200.009293 280.160858,199.672272 
	C278.888611,199.234955 277.207550,197.509155 277.182709,196.307404 
	C276.957458,185.412994 276.883026,174.507446 277.166443,163.615616 
	C277.248810,160.451080 280.452942,159.665726 283.840729,161.850677 
z"/>
</svg>